<?xml version="1.0" encoding="UTF-8"?>
<svg width="47px" height="47px" viewBox="0 0 47 47" version="1.1" xmlns="http://www.w3.org/2000/svg" xmlns:xlink="http://www.w3.org/1999/xlink">
    <!-- Generator: Sketch 54.1 (76490) - https://sketchapp.com -->
    <title>icon</title>
    <desc>Created with Sketch.</desc>
    <g id="Mobile-Final-Designs" stroke="none" stroke-width="1" fill="none" fill-rule="evenodd">
        <g id="1---Home" transform="translate(-32.000000, -1641.000000)">
            <g id="Group-4-Copy-3" transform="translate(13.000000, 1617.000000)">
                <g id="icon" transform="translate(19.000000, 24.000000)">
                    <circle id="Oval" fill="#013DA2" cx="23.5" cy="23.5" r="23.5"></circle>
                    <path d="M26.5165022,20.3367671 L22.4178595,20.3367671 C21.8715978,20.3367671 21.4703865,20.1788186 21.2139618,19.8610698 C20.954967,19.5433896 20.8264581,19.200882 20.8264581,18.8323126 C20.8264581,18.4644976 20.954967,18.12199 21.2139618,17.8042412 C21.4703865,17.4864924 21.8715978,17.3267607 22.4178595,17.3267607 L29.2635609,17.3267607 C31.768957,17.3267607 33.0544413,15.9397903 33.1188276,13.1626259 L33.1188276,13.0124274 C33.1188276,12.9991221 33.1175095,12.9868456 33.1175095,12.973609 L33.1175095,9.00329202 L29.4072932,9.00329202 C29.3748694,9.00281194 29.3447521,9 29.3118012,9 L22.9486341,9 C17.5882318,9 14.6047826,11.5139397 14,16.5428477 C14.32951,16.6834446 16.5047371,17.628118 17.0354458,18.2845337 C17.6321225,18.2507904 18.0219328,18.6570809 18.1412154,18.8714054 C18.369434,18.9162592 18.3366807,19.14238 18.3366807,19.14238 C18.3366807,19.14238 18.2390799,19.762652 18.0546202,19.932054 C18.1742323,20.1348564 18.0111249,20.2252498 18.0111249,20.2252498 C18.0111249,20.2252498 17.9352717,20.5863436 18.3798465,20.9473688 C18.8136794,21.150514 19.0954763,21.0601206 19.6162339,21.7144787 C19.930191,21.8048722 20.0711553,21.9631636 20.0711553,21.9631636 C20.0711553,21.9631636 20.1255904,22.3239145 20.4833723,22.5722565 C20.830544,23.0460335 20.667832,23.203982 21.1124068,23.9490765 C21.4914751,24.1293148 21.5783339,24.3664776 21.3941378,24.6708526 C21.2641791,24.7836044 20.5809731,26.1718779 19.5290455,26.0473983 C19.0986396,26.3390852 18.3265318,26.4580781 17.7583248,26.7054599 C18.9980073,27.3422607 20.5349077,27.6610382 22.3696851,27.6610382 L26.4664166,27.6610382 C27.0139963,27.6610382 27.4150759,27.8208385 27.6722254,28.1392046 C27.9286501,28.4568848 28.0572249,28.7987751 28.0572249,29.1672759 C28.0572249,29.5358453 27.9286501,29.8776671 27.6722254,30.1954158 C27.4150759,30.5137819 27.0139963,30.6716618 26.4664166,30.6716618 L18.175814,30.6716618 C15.6697588,30.6716618 14.3824952,32.0602097 14.3200201,34.8355222 L14.3200201,34.866865 L14.3150774,34.866865 L14.3150774,38.989301 L17.8136825,38.989301 C17.9172804,38.9941017 18.0198898,39 18.1282327,39 L26.033836,39 C32.0100265,39 35,35.8072177 35,29.4181555 C35,23.3652911 32.1713546,20.3367671 26.5165022,20.3367671" id="Path" fill="#FFC72C"></path>
                </g>
            </g>
        </g>
    </g>
</svg>