<svg xmlns="http://www.w3.org/2000/svg" viewBox="0 0 267.76 356.3"><defs><style>.cls-1{fill:#09090b;}.cls-2{fill:#706e73;}.cls-3{fill:#fefefe;}.cls-4{fill:#020302;}.cls-5{fill:#d42f29;}.cls-6{fill:#d32f29;}.cls-7{fill:#d33029;}.cls-8{fill:#d43029;}.cls-9{fill:#ed9e23;}.cls-10{fill:#f08324;}.cls-11{fill:#d22d27;}.cls-12{fill:#ebd415;}.cls-13{fill:#0f0900;}.cls-14{fill:#fae922;}.cls-15{fill:#1d1d1b;}</style></defs><title>Asset 1</title><g id="Layer_2" data-name="Layer 2"><g id="Layer_1-2" data-name="Layer 1"><g id="Lsrdkd.tif"><path class="cls-1" d="M0,53.44a7.68,7.68,0,0,0,.21-1.12c.32-8.59.49-17.19,1-25.77.46-7.9,1.28-15.79,2-23.68.08-.91.26-1.82.39-2.74h260c.28,2.47.53,4.93.84,7.38a232.18,232.18,0,0,1,2.18,27.38c2.91,25.51-1.46,50.59-1.55,76.2,0,4.35-.55,8.71-1,13.06s-.92,8.6-1.46,12.9c-.57,4.58-1.13,9.17-1.86,13.73-1,6.34-2.06,12.68-3.27,19-6.15,31.92-15.42,62.82-30.13,91.93-11.19,22.15-25.17,42.31-43.06,59.64a183.94,183.94,0,0,1-50,34.6,1.68,1.68,0,0,1-1.63-.06,185.44,185.44,0,0,1-57.31-42.12C60,297.11,47.81,278.32,37.9,258a317.45,317.45,0,0,1-19.39-50.95,381.69,381.69,0,0,1-9.79-42.2c-1.48-8.66-2.84-17.35-4-26.06-1.07-8.18-2-16.38-2.6-24.6C1.39,104.34,1,94.46.5,84.58c-.16-3.14-.16-6.3-.26-9.44a3.69,3.69,0,0,0-.2-.79q0-2,0-4a2.29,2.29,0,0,0,.23-.67q0-6.22,0-12.44A2.27,2.27,0,0,0,0,56.55Q0,55,0,53.44ZM7.48,4.56c-.25,2.45-.56,4.8-.72,7.15C6.14,21.18,5.41,30.63,5,40.11c-.62,14.7-.62,29.42-.13,44.13C5.34,97.83,6.1,111.4,7.6,124.92,8.6,134,9.7,143,11,152c1.68,11.52,3.94,22.93,6.61,34.26a349.32,349.32,0,0,0,17.8,55.56c9,21.29,20.2,41.24,34.8,59.22A182.66,182.66,0,0,0,132.67,351a1.77,1.77,0,0,0,1.83,0c6.24-3.51,12.66-6.73,18.69-10.57,25.08-16,44.62-37.33,60.14-62.53,12.14-19.71,21.2-40.81,28.25-62.81a370.35,370.35,0,0,0,11-43.08c1.77-9.22,3.28-18.49,4.68-27.77,1-6.55,1.67-13.14,2.33-19.73.68-6.74,1.28-13.49,1.71-20.26.46-7.14.85-14.28,1-21.43.17-12.12.38-24.24,0-36.35S260.95,22,260.21,9.72c-.1-1.72-.36-3.44-.54-5.16Z"/><path class="cls-2" d="M0,56.55a2.27,2.27,0,0,1,.23.67q0,6.22,0,12.44a2.29,2.29,0,0,1-.23.67Q0,63.45,0,56.55Z"/><path class="cls-3" d="M7.48,4.56H259.67c.18,1.72.44,3.44.54,5.16.74,12.24,1.74,24.47,2.09,36.72s.14,24.23,0,36.35c-.1,7.15-.5,14.29-1,21.43-.43,6.76-1,13.51-1.71,20.26-.66,6.59-1.35,13.18-2.33,19.73-1.4,9.28-2.9,18.55-4.68,27.77a370.35,370.35,0,0,1-11,43.08c-7.05,22-16.11,43.1-28.25,62.81-15.51,25.2-35.06,46.56-60.14,62.53-6,3.84-12.45,7.05-18.69,10.57a1.77,1.77,0,0,1-1.83,0A182.66,182.66,0,0,1,70.23,301c-14.59-18-25.83-37.94-34.8-59.22a349.32,349.32,0,0,1-17.8-55.56C15,174.93,12.7,163.51,11,152,9.7,143,8.6,134,7.6,124.92,6.1,111.4,5.34,97.83,4.88,84.23,4.39,69.52,4.39,54.81,5,40.11c.4-9.47,1.13-18.93,1.75-28.39C6.91,9.36,7.23,7,7.48,4.56Zm199.25,206,.4.23.07-.12-.32-.28c-2.9-4.48-7.53-5.5-11.84-2.46a3.07,3.07,0,0,1-3.24.34,9,9,0,0,0-5.13-.35,16.31,16.31,0,0,0-8.4,5.12c-1.78,1.85-3.37,3.89-5.08,5.88l-3-2.29,1.41-2.52-1.1-1c-5.69-5.47-11.32-11-17.1-16.38a6.59,6.59,0,0,1-2.34-4.86c0-.37-.1-.73-.15-1.1l-.62-4.75c7.53,9.74,17.8,13.22,29.21,14.59.14-.51.22-.83.31-1.14a8.2,8.2,0,0,1,3.46-5.1,3,3,0,0,1,1.93-.35,24.93,24.93,0,0,0,8.82.41c2.89-.49,5.53-1.47,7.47-3.93-.35-.2-.62-.38-.92-.53-.89-.44-.72-1.15-.53-1.91s.71-.72,1.36-.71a17.27,17.27,0,0,0,3.53-.2c4.36-.83,7.88-3.23,11.06-6.19.56-.52.17-2-.63-2.33-1.29-.52-1.73-1.6-2.09-2.93a14.69,14.69,0,0,0,10.81-5.23,24.68,24.68,0,0,0,5.48-11.06c-1.88.53-3.5.64-4.42-1.13a36.83,36.83,0,0,0,3.64-2.25,27.43,27.43,0,0,0,7.46-9.94c.35-.71-.83-1.93-1.67-1.85a19.75,19.75,0,0,1-3.1.13,2.79,2.79,0,0,1-2.58-1.38c6.24-1.94,10.66-7.95,9.44-12.8-3.25.18-5.51-1.37-7.07-4.11,1.48-.88,3-1.64,4.32-2.58,5-3.5,8.13-8.2,8.58-14.44a2.16,2.16,0,0,0-.51-1.59,1.54,1.54,0,0,0-2.24.07,15.7,15.7,0,0,1-2.91,1.79,8.74,8.74,0,0,1-1.74.46c1.31-2.08,2.49-3.87,3.57-5.7,2.35-4,4.48-8.08,5.35-12.68a7.08,7.08,0,0,0-.6-5.34c-1.91,1.28-3.49,3.21-6.3,2.61.34-.5.56-.8.74-1.11,2.27-3.89,4.69-7.7,6.74-11.69A37.45,37.45,0,0,0,250.61,61a1.44,1.44,0,0,0-.49-1.14c-.57-.33-1.13-.73-2-.13-2,1.45-4.18,2.75-6.35,4a11.62,11.62,0,0,1-2.45.77c1-3.29,1.94-6.35,2.73-9.45,2.45-9.63,3.5-19.36,1.7-29.24a31.33,31.33,0,0,0-2.9-9c-2.08.42-2.11.42-2.15,2.36a103.5,103.5,0,0,1-1.62,16.56c-1.09,5.91-2.67,11.66-5.75,16.89-1.05,1.79-2.35,3.43-3.54,5.14l-.33-.19a45.53,45.53,0,0,0,2.62-16.43A42.39,42.39,0,0,0,226.64,25c-2.12.33-2,.35-2.24,2.25a47.11,47.11,0,0,1-1.21,6.52c-2.57,9.47-7.63,17.56-14.06,24.85-7.82,8.86-17.17,15.82-27.32,21.76a61.88,61.88,0,0,0-6.45,3.86,64.79,64.79,0,0,0-20.26,26.36c-1.81,4.19-3.12,8.6-4.65,12.9a5.42,5.42,0,0,0,0-1.33,90.55,90.55,0,0,1,.6-18.73,84.17,84.17,0,0,1,8.25-27.08c2.52-5,5.5-9.67,8.27-14.5l.89.65c5.16,3.77,10.72,5.91,17.23,4.29,3.49-.87,6.68-2.24,8.84-5.27a23.41,23.41,0,0,0,1.64-3.23l-.28-.13c-3.46,2.43-5.57,3-9.08,1.7a28.58,28.58,0,0,1-6.48-3.29c-2.54-1.75-4.81-3.9-7.2-5.88.2-.08.42-.26.61-.24.81.09,1.61.24,2.41.38,5.57,1,11.13,2,16.7,2.91a6.88,6.88,0,0,0,4.68-.72,1.29,1.29,0,0,0-.67-.24,23,23,0,0,1-3.17-.3c-3.19-.76-6.36-1.61-9.54-2.44l-9.34-2.46.37-.75c.32.1.63.2,1,.28a38.19,38.19,0,0,0,14.72,1.21,31.41,31.41,0,0,0,9-2.78c3.93-1.81,7.72-1.22,10.35,2,0,0,.14,0,.24,0,.15-.6.32-1.2.45-1.81,1.28-6.34-1.26-10.59-7.53-12.19a25.19,25.19,0,0,0-6.79-.82c-3.8.1-7.58.59-11.37.92a8.9,8.9,0,0,0-7-10.25c-3.8-.83-7.5-.18-11.17.79a80.24,80.24,0,0,0-15.75,6.38c-2.24,1.14-4,.78-5.58-1.18-.27-.34-.52-.7-.8-1.07l-1.87,1c.13.32.22.52.3.72A29.38,29.38,0,0,1,144,49.85q-2.93,9.45-5.64,19c-1.7,6-3.25,12-4.85,18-.05-.15-.14-.39-.21-.64-3.3-11.79-6.49-23.61-9.93-35.35a30.88,30.88,0,0,1-1-15.31c.44-2.08,1.14-4.1,1.73-6.22l-1.75-.92-.33.44c-1.82,2.66-3.49,3-6.43,1.62-3.67-1.72-7.36-3.4-11.14-4.84-4.51-1.71-9.15-2.88-14.07-2.39a9.05,9.05,0,0,0-8.33,10.48c-3.35-.32-6.69-.76-10-.94a23.55,23.55,0,0,0-9.93,1.4c-5.61,2.17-7.33,7.39-5.14,13.45,3.57-3.4,6.35-3.86,11-1.8,1,.44,2,.87,3,1.22C77.93,49.5,85,48.85,92,46.84l.37.73c-.32.11-.59.22-.87.29q-7.87,2-15.74,4.05c-1.88.48-3.73,1.24-5.75.87-.1,0-.25.17-.46.33a9.42,9.42,0,0,0,6.06.47Q84.47,52,93.31,50.5a2.24,2.24,0,0,1,.76.15l-.73.67c-3.51,3.33-7.2,6.4-11.76,8.19C78,60.93,74.5,61,71.43,58.19c0,0-.12,0-.26,0A8.12,8.12,0,0,0,74,63a17.72,17.72,0,0,0,15.77,3.85,24.67,24.67,0,0,0,9.9-5c1.05,1.81,2,3.67,3.17,5.43A88.65,88.65,0,0,1,117,118.17c0,1.81-.22,3.62-.36,5.75-.18-.39-.22-.46-.23-.53a71,71,0,0,0-16.24-31.46,47.64,47.64,0,0,0-12.9-10.55,111.58,111.58,0,0,1-20.4-14.1c-8.15-7.08-15.08-15.15-19.72-25a44.23,44.23,0,0,1-4.37-15.13C42.6,25.44,42.65,25.44,41,25a2.28,2.28,0,0,0-.49,0A43.05,43.05,0,0,0,37,41.26a48.21,48.21,0,0,0,2.54,16.36,27.84,27.84,0,0,1-6.14-9.81c-3.33-8.35-4.46-17.12-4.91-26-.08-1.5,0-3,0-4.42-.64-.19-1-.29-1.27-.37s-.62-.13-.94-.19c-.1.18-.18.31-.24.44a41.2,41.2,0,0,0-3.54,16.57A77.42,77.42,0,0,0,26,58.53c.58,2,1.2,3.9,1.85,6-.77-.22-1.37-.37-2-.57a21.71,21.71,0,0,1-7-4.25c-.77-.66-1.32-.16-1.87.13a1.41,1.41,0,0,0-.54,1.1,18.59,18.59,0,0,0,.29,2.87,48.46,48.46,0,0,0,5.69,15.39c1.77,3.19,3.74,6.27,5.69,9.53-2.68.6-4.27-1.43-6.16-2.65a7.54,7.54,0,0,0-.57,5.49,35.77,35.77,0,0,0,4.36,10.84c1.38,2.43,2.9,4.79,4.49,7.41a8.42,8.42,0,0,1-1.7-.47,17.12,17.12,0,0,1-3-1.86c-.78-.66-1.35-.35-2.09-.09s-.6,1-.57,1.48a17.85,17.85,0,0,0,6.85,13.29c1.84,1.51,4,2.68,6,4.05a7.26,7.26,0,0,1-7.16,4,12.12,12.12,0,0,0,1.66,6.89,12.55,12.55,0,0,0,8.17,6c-.57.41-.92.84-1.32.91a10.9,10.9,0,0,1-3.8.35c-1.51-.3-2,.48-2.78,1.7,1.53,2.29,3,4.72,4.72,7a14.41,14.41,0,0,0,6.82,5.14c-1.1,1.93-2.75,1.81-4.71,1.23,2.68,8.55,6.63,15.38,16.42,16.44a3.57,3.57,0,0,1-2.15,2.86,1.61,1.61,0,0,0-.36,2.44A59.5,59.5,0,0,0,57,185.19a14.39,14.39,0,0,0,8.67,2.18c.65-.06,1.24-.19,1.46.68s.32,1.53-.63,2a5.77,5.77,0,0,0-.77.51,9.45,9.45,0,0,0,4.24,3,18.81,18.81,0,0,0,11.25.53,3.54,3.54,0,0,1,3.89,1.24A17.47,17.47,0,0,1,87,198.44a13.43,13.43,0,0,1,.69,2.09,47.11,47.11,0,0,0,16.1-4.1,32.42,32.42,0,0,0,13-10.22c-.22,2.26-.63,4.45-.82,6.65a4.85,4.85,0,0,1-1.65,3.32c-6,5.67-11.87,11.39-17.8,17.09a8.64,8.64,0,0,1-1,.74l1.5,2.66-3.17,2.4c-.49-.67-.91-1.28-1.35-1.87a28.63,28.63,0,0,0-8.07-7.69A10.6,10.6,0,0,0,76.2,208c-.72.18-1.41.48-2.13.59a2.34,2.34,0,0,1-1.28-.26,30.08,30.08,0,0,0-3.53-1.8c-3.38-1.11-8,1.11-9.06,4.19.36-.2.71-.41,1.07-.6a11.17,11.17,0,0,1,1.1-.53c1.61-.63,2.06-.3,1.93,1.41-.16,2.14.81,3.21,3,3.2.84,0,1.68-.15,2.57-.23.12.4.22.79.34,1.16a3.76,3.76,0,0,0,3.9,2.84,11.41,11.41,0,0,0,3.51-.85c1.81-.71,4.64,0,5.54,1.63.77,1.37,1.51,2.75,2.26,4.11-1.88.8-4.52.64-7.22-.5a18.35,18.35,0,0,0-12-.66,4.52,4.52,0,0,1-3.48-.34c-4.86-2.41-8.94-1.17-11.78,3.47-.24.4-.45.82-.67,1.22a4.6,4.6,0,0,0,1.23-.73,11.88,11.88,0,0,1,1.2-.8c1.45-.79,2-.5,2.09,1.1.13,2.23,1.34,3.28,3.57,3,.72-.08,1.43-.28,2.14-.43,1.39,3.07,3.09,4.18,6.1,3.93a11.24,11.24,0,0,0,5.87-2.13,2.09,2.09,0,0,1,.84-.48c2.43-.31,4.85-.44,7,1.24-.89.51-1.76,1-2.61,1.52-2.94,1.8-5.9,3.56-8.11,6.3-.17.22-.65.26-1,.26a9.7,9.7,0,0,0-9.52,10.33,38.75,38.75,0,0,1,2.25-3.16c.76-.88,1.37-.67,1.71.44l.17.53c.81,2.39,2.46,3,4.55,1.57a35.63,35.63,0,0,0,2.82-2.36c.26.16.52.36.81.52a5,5,0,0,0,4.79.36,8.66,8.66,0,0,0,4.05-4.83,12.24,12.24,0,0,1,12.49-8.2,8,8,0,0,1-5,5.65,1.79,1.79,0,0,0-.38.2,4.68,4.68,0,0,0,.22,8l.65.43c-.37.5-.72.93-1,1.38-1.53,2.19-1.14,3.42,1.38,4.3.81.28.89.78.38,1.33a24.26,24.26,0,0,1-1.9,1.66l.13.28a31.85,31.85,0,0,0,3.95-1.84,5.09,5.09,0,0,0,2.23-5c0-.62-.26-1.23-.32-1.86a1.36,1.36,0,0,1,.2-1c3-3,4.21-6.87,4.91-10.95.45-2.65.94-5.3,1.58-7.92.35-1.41,1.08-2.69,2.83-2.83l4,6.45a49.6,49.6,0,0,0,15.75-17.94c.58,2.14.73,4.09-.39,6.07-2.42,4.27-4.57,8.68-7.06,12.91a48.37,48.37,0,0,1-9.39,11.89,2.53,2.53,0,0,0-.88,1.9c-.29,4-.6,8.05-1,12.07a1.29,1.29,0,0,0,1,1.61,7.53,7.53,0,0,0,4.78-.35c4.24-1.46,7.71-4.16,11.11-7l1.27-1.06c.4,1.05.69,1.93,1.07,2.77a2.7,2.7,0,0,1,0,2.3q-1.19,2.92-2.22,5.9a1.59,1.59,0,0,1-1.29,1.17c-2.56.55-5.1,1.2-7.68,1.64a56.17,56.17,0,0,1-20.1-.21c-1.68-.32-3.34-.72-5.08-1.1-.27,3.28-.56,6.45-.75,9.62a2.38,2.38,0,0,0,.61,1.63c2.87,2.88,6,5.38,10.08,6.18-.72,2-1.54,4-2.11,6a12.55,12.55,0,0,0,.07,8.38c1.07,2.62,2.64,3.42,5.44,2.86a23.55,23.55,0,0,0,9-4.11c4.72-3.37,9.29-7,13.93-10.45.69-.52,1.4-1,2.11-1.49l.32.22a17.07,17.07,0,0,1-.5,2.66c-.93,2.64-2.11,5.2-2.92,7.87a38.27,38.27,0,0,0-1.38,16.68A25.58,25.58,0,0,0,133,330.4a1.23,1.23,0,0,0,1,0,25.53,25.53,0,0,0,7.23-6.16A26.78,26.78,0,0,0,147,308.72a36.9,36.9,0,0,0-3.1-18.06,30.23,30.23,0,0,1-1.47-4.16,20.12,20.12,0,0,1-.43-2.62l.35-.19c.73.53,1.47,1.06,2.2,1.6,4.71,3.52,9.35,7.13,14.14,10.54a22.61,22.61,0,0,0,8.73,3.92c2.67.53,4.25-.27,5.32-2.76a11.27,11.27,0,0,0,.36-7.41c-.62-2.41-1.5-4.75-2.29-7.17l.47-.13c.21-.05.43-.09.64-.16,3.76-1.09,6.62-3.52,9.25-6.26a1.6,1.6,0,0,0,.28-1.11c-.16-2.33-.37-4.65-.57-7-.08-.94-.16-1.88-.22-2.62-3.28.55-6.4,1.18-9.54,1.56a58.61,58.61,0,0,1-23.38-2.11,2.09,2.09,0,0,1-1.16-1.1c-.86-2.07-1.62-4.19-2.41-6.3a1.65,1.65,0,0,1-.19-.94c.41-1.23.91-2.43,1.4-3.73,1,.81,1.81,1.54,2.68,2.22,3.18,2.49,6.4,5,10.39,6a14.29,14.29,0,0,0,4.24.09,1,1,0,0,0,.91-1.14c-.4-4.28-.71-8.56-1.1-12.84a2.47,2.47,0,0,0-.66-1.3c-1.42-1.56-3-3-4.32-4.62-5.26-6.51-9.18-13.83-12.72-21.37a6.26,6.26,0,0,1,.1-4.92c5.13,8.51,11.91,16.09,15.78,17.63l3.89-6.3c.73.28,1.63.25,2,1.15a10.8,10.8,0,0,1,.88,1.9c.56,2.63,1.07,5.28,1.53,7.93.69,4,1.87,7.69,4.8,10.65a1.4,1.4,0,0,1,.24,1.16c-1.26,4.47,1.2,7.67,6.09,8.32-.6-.47-1.17-.87-1.68-1.35-.92-.86-.79-1.33.43-1.71,1.91-.6,2.42-1.84,1.44-3.59-.41-.72-.94-1.38-1.42-2.07.39-.26.75-.47,1.07-.71a3.89,3.89,0,0,0,1.88-4,5,5,0,0,0-3.09-4.12c-2.48-.95-3.49-3.15-4.48-5.56l3,.26c3.77.36,8.45,4,9.49,7.52a10.06,10.06,0,0,0,3.18,4.71,3.92,3.92,0,0,0,3.5,1,28.91,28.91,0,0,0,3.37-1.05c.58.54,1.23,1.21,2,1.78,2.61,2.05,4.37,1.5,5.36-1.66,0-.14,0-.38.11-.42.38-.16.87-.46,1.16-.33a2.9,2.9,0,0,1,1.1,1.05c.57.82,1.06,1.69,1.59,2.54a11.59,11.59,0,0,0-.37-2.66c-1.33-5.28-4.06-7.51-9.45-7.8a1.12,1.12,0,0,1-.75-.32,25.73,25.73,0,0,0-6.71-5.42c-1.3-.82-2.64-1.58-4-2.37a7.77,7.77,0,0,1,6.07-1.29,5.12,5.12,0,0,1,2,.76,11.43,11.43,0,0,0,6.61,1.94,5.08,5.08,0,0,0,4.84-3.29l.28-.68c.68.16,1.28.35,1.9.43,2.47.34,3.82-.73,3.78-3.22,0-1.31.83-1.6,1.81-1s1.78,1.15,2.89,1.88c-1.49-2.79-3.15-5.07-6.2-5.85-2.65-.68-5.05.14-7.33,1.42a1.92,1.92,0,0,1-1.64.14,20.56,20.56,0,0,0-4.23-.83,19.19,19.19,0,0,0-9.22,1.42,8.59,8.59,0,0,1-6.72.33c.67-1.12,1.39-2.16,1.93-3.28a4.6,4.6,0,0,1,6.29-2.29,8.27,8.27,0,0,0,1.78.59c2.06.4,4.78-.15,5.41-3.25a6.38,6.38,0,0,1,.25-.74c.54.1,1,.2,1.48.26,3.44.4,4.44-1.28,4-3.78-.16-.83.34-1.29,1.19-1A25.83,25.83,0,0,1,206.73,210.59Z"/><path class="cls-4" d="M175.14,46.85l-.37.75,9.34,2.46c3.18.83,6.34,1.68,9.54,2.44a23,23,0,0,0,3.17.3,1.29,1.29,0,0,1,.67.24,6.88,6.88,0,0,1-4.68.72c-5.57-1-11.13-1.94-16.7-2.91-.8-.14-1.6-.28-2.41-.38-.19,0-.4.15-.61.24l-5.57,11.15c-2.77,4.82-5.75,9.55-8.27,14.5A84.17,84.17,0,0,0,151,103.43a90.55,90.55,0,0,0-.6,18.73,5.42,5.42,0,0,1,0,1.33c1.54-4.31,2.84-8.71,4.65-12.9a64.79,64.79,0,0,1,20.26-26.36,61.88,61.88,0,0,1,6.45-3.86c10.16-5.94,19.5-12.9,27.32-21.76,6.43-7.29,11.48-15.39,14.06-24.85a47.11,47.11,0,0,0,1.21-6.52c.24-1.91.12-1.92,2.24-2.25a42.39,42.39,0,0,1,3.48,16.19,45.53,45.53,0,0,1-2.62,16.43l.33.19c1.19-1.71,2.48-3.35,3.54-5.14,3.07-5.22,4.66-11,5.75-16.89a103.5,103.5,0,0,0,1.62-16.56c0-1.94.07-1.94,2.15-2.36a31.33,31.33,0,0,1,2.9,9c1.81,9.88.75,19.61-1.7,29.24-.79,3.1-1.77,6.16-2.73,9.45a11.62,11.62,0,0,0,2.45-.77c2.16-1.26,4.31-2.56,6.35-4,.84-.6,1.4-.2,2,.13a1.44,1.44,0,0,1,.49,1.14,37.45,37.45,0,0,1-4.34,14.88c-2.06,4-4.48,7.8-6.74,11.69-.18.32-.41.61-.74,1.11,2.81.6,4.39-1.32,6.3-2.61a7.08,7.08,0,0,1,.6,5.34c-.87,4.6-3,8.7-5.35,12.68-1.09,1.84-2.26,3.62-3.57,5.7a8.74,8.74,0,0,0,1.74-.46,15.7,15.7,0,0,0,2.91-1.79,1.54,1.54,0,0,1,2.24-.07,2.16,2.16,0,0,1,.51,1.59c-.45,6.23-3.54,10.93-8.58,14.44-1.36.94-2.84,1.71-4.32,2.58,1.56,2.73,3.82,4.29,7.07,4.11,1.22,4.86-3.2,10.86-9.44,12.8a2.79,2.79,0,0,0,2.58,1.38,19.75,19.75,0,0,0,3.1-.13c.84-.07,2,1.14,1.67,1.85a27.43,27.43,0,0,1-7.46,9.94,36.83,36.83,0,0,1-3.64,2.25c.92,1.76,2.54,1.66,4.42,1.13a24.68,24.68,0,0,1-5.48,11.06,14.69,14.69,0,0,1-10.81,5.23c.36,1.33.8,2.41,2.09,2.93.8.32,1.18,1.82.63,2.33-3.19,3-6.7,5.36-11.06,6.19a17.27,17.27,0,0,1-3.53.2c-.65,0-1.16-.08-1.36.71s-.36,1.46.53,1.91c.29.15.57.33.92.53-1.94,2.46-4.58,3.44-7.47,3.93a24.93,24.93,0,0,1-8.82-.41,3,3,0,0,0-1.93.35,8.2,8.2,0,0,0-3.46,5.1c-.09.32-.17.63-.31,1.14-11.41-1.36-21.68-4.84-29.21-14.59l.62,4.75c0,.37.13.73.15,1.1a6.59,6.59,0,0,0,2.34,4.86c5.77,5.38,11.41,10.91,17.1,16.38l1.1,1-1.41,2.52c-.36.54-.75,1.07-1.08,1.63-1.5,2.55-3,5.11-4.48,7.67l-3.89,6.3c-3.87-1.54-10.65-9.12-15.78-17.63a6.26,6.26,0,0,0-.1,4.92c3.54,7.54,7.46,14.86,12.72,21.37,1.32,1.64,2.9,3.06,4.32,4.62a2.47,2.47,0,0,1,.66,1.3c.39,4.28.71,8.56,1.1,12.84a1,1,0,0,1-.91,1.14,14.29,14.29,0,0,1-4.24-.09c-4-1-7.22-3.48-10.39-6-.87-.68-1.71-1.41-2.68-2.22-.5,1.3-1,2.5-1.4,3.73a1.65,1.65,0,0,0,.19.94c.78,2.11,1.55,4.22,2.41,6.3a2.09,2.09,0,0,0,1.16,1.1,58.61,58.61,0,0,0,23.38,2.11c3.15-.38,6.26-1,9.54-1.56.06.74.15,1.68.22,2.62.2,2.32.41,4.65.57,7a1.6,1.6,0,0,1-.28,1.11c-2.63,2.74-5.5,5.17-9.25,6.26-.21.06-.43.1-.64.16l-.47.13c.78,2.42,1.66,4.76,2.29,7.17a11.27,11.27,0,0,1-.36,7.41c-1.07,2.49-2.65,3.28-5.32,2.76a22.61,22.61,0,0,1-8.73-3.92c-4.79-3.41-9.43-7-14.14-10.54-.72-.54-1.46-1.07-2.2-1.6l-.35.19a20.12,20.12,0,0,0,.43,2.62,30.23,30.23,0,0,0,1.47,4.16,36.9,36.9,0,0,1,3.1,18.06,26.78,26.78,0,0,1-5.74,15.54,25.53,25.53,0,0,1-7.23,6.16,1.23,1.23,0,0,1-1,0,25.58,25.58,0,0,1-12.69-19.29,38.27,38.27,0,0,1,1.38-16.68c.81-2.67,2-5.23,2.92-7.87a17.07,17.07,0,0,0,.5-2.66l-.32-.22c-.7.5-1.42,1-2.11,1.49-4.64,3.49-9.21,7.08-13.93,10.45a23.55,23.55,0,0,1-9,4.11c-2.8.56-4.37-.24-5.44-2.86a12.55,12.55,0,0,1-.07-8.38c.58-2,1.39-4,2.11-6-4.08-.79-7.21-3.29-10.08-6.18a2.38,2.38,0,0,1-.61-1.63c.19-3.17.48-6.34.75-9.62,1.74.38,3.4.78,5.08,1.1a56.17,56.17,0,0,0,20.1.21c2.58-.43,5.12-1.09,7.68-1.64a1.59,1.59,0,0,0,1.29-1.17q1-3,2.22-5.9a2.7,2.7,0,0,0,0-2.3c-.38-.84-.67-1.72-1.07-2.77l-1.27,1.06c-3.4,2.81-6.86,5.52-11.11,7a7.53,7.53,0,0,1-4.78.35,1.29,1.29,0,0,1-1-1.61c.41-4,.72-8,1-12.07a2.53,2.53,0,0,1,.88-1.9,48.37,48.37,0,0,0,9.39-11.89c2.48-4.23,4.64-8.64,7.06-12.91,1.13-2,1-3.93.39-6.07a49.6,49.6,0,0,1-15.75,17.94l-4-6.45L97,216.66,95.49,214a8.64,8.64,0,0,0,1-.74c5.93-5.7,11.84-11.42,17.8-17.09a4.85,4.85,0,0,0,1.65-3.32c.19-2.2.6-4.39.82-6.65a32.42,32.42,0,0,1-13,10.22,47.11,47.11,0,0,1-16.1,4.1,13.43,13.43,0,0,0-.69-2.09,17.47,17.47,0,0,0-1.89-3.09,3.54,3.54,0,0,0-3.89-1.24A18.81,18.81,0,0,1,70,193.57a9.45,9.45,0,0,1-4.24-3,5.77,5.77,0,0,1,.77-.51c1-.43.84-1.15.63-2s-.82-.74-1.46-.68A14.39,14.39,0,0,1,57,185.19a59.5,59.5,0,0,1-5.64-4.09,1.61,1.61,0,0,1,.36-2.44,3.57,3.57,0,0,0,2.15-2.86c-9.79-1.06-13.74-7.89-16.42-16.44,2,.58,3.61.7,4.71-1.23A14.41,14.41,0,0,1,35.32,153c-1.71-2.26-3.18-4.69-4.72-7,.74-1.22,1.26-2,2.78-1.7a10.9,10.9,0,0,0,3.8-.35c.41-.07.75-.51,1.32-.91a12.55,12.55,0,0,1-8.17-6,12.12,12.12,0,0,1-1.66-6.89,7.26,7.26,0,0,0,7.16-4c-2-1.37-4.16-2.54-6-4.05A17.85,17.85,0,0,1,23,108.85c0-.53-.27-1.17.57-1.48s1.31-.57,2.09.09a17.12,17.12,0,0,0,3,1.86,8.42,8.42,0,0,0,1.7.47c-1.6-2.62-3.11-5-4.49-7.41A35.77,35.77,0,0,1,21.5,91.54a7.54,7.54,0,0,1,.57-5.49c1.89,1.23,3.48,3.25,6.16,2.65-2-3.26-3.92-6.34-5.69-9.53a48.46,48.46,0,0,1-5.69-15.39,18.59,18.59,0,0,1-.29-2.87,1.41,1.41,0,0,1,.54-1.1c.55-.29,1.1-.79,1.87-.13a21.71,21.71,0,0,0,7,4.25c.58.2,1.19.35,2,.57-.65-2.1-1.27-4-1.85-6a77.42,77.42,0,0,1-3.5-24.71,41.2,41.2,0,0,1,3.54-16.57c.06-.13.14-.26.24-.44.31.06.63.11.94.19s.64.18,1.27.37c0,1.4-.06,2.91,0,4.42.45,8.9,1.58,17.67,4.91,26a27.84,27.84,0,0,0,6.14,9.81A48.21,48.21,0,0,1,37,41.26,43.05,43.05,0,0,1,40.48,25,2.28,2.28,0,0,1,41,25c1.67.43,1.62.44,1.77,2.14a44.23,44.23,0,0,0,4.37,15.13c4.64,9.86,11.56,17.92,19.72,25a111.58,111.58,0,0,0,20.4,14.1,47.64,47.64,0,0,1,12.9,10.55,71,71,0,0,1,16.24,31.46c0,.07.06.13.23.53.14-2.13.32-3.94.36-5.75a88.65,88.65,0,0,0-14.15-50.89c-1.13-1.76-2.11-3.62-3.17-5.43L94.07,50.65a2.24,2.24,0,0,0-.76-.15Q84.47,52,75.64,53.58a9.42,9.42,0,0,1-6.06-.47c.21-.16.35-.35.46-.33,2,.37,3.87-.39,5.75-.87q7.87-2,15.74-4.05c.28-.07.54-.18.87-.29L92,46.84c-2.1-3.37-4.14-6.77-6.33-10.08a6.73,6.73,0,0,0-3.62-3.1,9.05,9.05,0,0,1,8.33-10.48c4.92-.5,9.57.67,14.07,2.39,3.78,1.44,7.48,3.12,11.14,4.84,2.94,1.38,4.61,1,6.43-1.62l.33-.44,1.75.92c-.6,2.12-1.3,4.14-1.73,6.22a30.88,30.88,0,0,0,1,15.31c3.45,11.74,6.64,23.56,9.93,35.35.07.25.16.49.21.64,1.6-5.95,3.15-12,4.85-18q2.7-9.52,5.64-19a29.38,29.38,0,0,0-.83-19.76c-.08-.2-.16-.4-.3-.72l1.87-1c.28.37.53.73.8,1.07,1.54,2,3.35,2.32,5.58,1.18a80.24,80.24,0,0,1,15.75-6.38c3.67-1,7.37-1.63,11.17-.79a8.9,8.9,0,0,1,7,10.25c-1,.71-2.19,1.24-2.83,2.17C179.8,39.44,177.5,43.17,175.14,46.85ZM61.19,155.31h0l.23.23h0l.23.23h0a17.85,17.85,0,0,0,2.5,2.15c2.08,1.22,4.26,2.29,6.4,3.42h0l2.68.89h0l2.18.63,4.31.52v1.95h4.46v-2.23a29.3,29.3,0,0,0,14.89-6.21,28.48,28.48,0,0,0,9.15-13.19l1.95.31.9-4.33-1.8-.46a28,28,0,0,0-8.58-24.35l1.29-1.53-3.29-3L97.13,112c-11.5-6.74-22.65-6.31-33.62,1.26l-2.19-2-3.25,3.43,2.15,1.75a28,28,0,0,0-6.69,12.73A29.7,29.7,0,0,0,54,143.51l-2.13.88,1.6,4.15,2.12-.77L56.87,150l.32.46h0l.45.68h0l.67.9h0l.67.9h0l1.12,1.34h0l.23.23h0l.23.23h0l.23.23h0l.23.23h0Zm117.4-9.4L171,156l7,5.26,6.13-8.1,9.63,12.74,9.63-12.74,6.12,8.11,7-5.26-7.62-10.13,9.61-12.76-9.61-12.76,7.62-10.12-7-5.26-6.13,8.1-9.63-12.74-9.62,12.74-6.14-8.1-7,5.26c2.36,3.14,4.65,6.23,7,9.27a1.13,1.13,0,0,1,0,1.69c-3,3.93-6,7.91-9,11.92ZM102.18,36.72c-1-.28-2-.61-2.94-.79-3.4-.63-6,1.07-6.45,4.27a1.68,1.68,0,0,0,.48,1.29,3.76,3.76,0,0,0,4.82.06A13.75,13.75,0,0,0,102.18,36.72Zm62.85.1c1.29,2.12,2.59,4,4.78,5.13a3.53,3.53,0,0,0,4.13-.48,1.48,1.48,0,0,0,.47-1,4.84,4.84,0,0,0-4.11-4.56A9.73,9.73,0,0,0,165,36.82Z"/><path class="cls-5" d="M164.61,226c1.49-2.56,3-5.12,4.48-7.67.33-.56.72-1.09,1.08-1.63l3,2.29c1.71-2,3.3-4,5.08-5.88a16.31,16.31,0,0,1,8.4-5.12,9,9,0,0,1,5.13.35A3.07,3.07,0,0,0,195,208c4.31-3,8.93-2,11.84,2.46l-.16.16A25.76,25.76,0,0,0,204,209.4c-.85-.26-1.35.19-1.19,1,.48,2.5-.52,4.18-4,3.78-.47-.05-.94-.16-1.48-.26a6.38,6.38,0,0,0-.25.74c-.63,3.11-3.36,3.65-5.41,3.25a8.27,8.27,0,0,1-1.78-.59,4.6,4.6,0,0,0-6.29,2.29c-.54,1.12-1.26,2.15-1.93,3.28a8.59,8.59,0,0,0,6.72-.33,19.19,19.19,0,0,1,9.22-1.42,20.56,20.56,0,0,1,4.23.83,1.92,1.92,0,0,0,1.64-.14c2.27-1.28,4.68-2.1,7.33-1.42,3.05.78,4.71,3.06,6.2,5.85-1.11-.73-2-1.36-2.89-1.88s-1.83-.26-1.81,1c0,2.49-1.32,3.56-3.78,3.22-.62-.09-1.22-.28-1.9-.43l-.28.68a5.08,5.08,0,0,1-4.84,3.29,11.43,11.43,0,0,1-6.61-1.94,5.12,5.12,0,0,0-2-.76,7.77,7.77,0,0,0-6.07,1.29c1.33.79,2.67,1.55,4,2.37a25.73,25.73,0,0,1,6.71,5.42,1.12,1.12,0,0,0,.75.32c5.39.29,8.11,2.52,9.45,7.8a11.59,11.59,0,0,1,.37,2.66c-.53-.85-1-1.72-1.59-2.54a2.9,2.9,0,0,0-1.1-1.05c-.29-.12-.78.18-1.16.33-.08,0-.07.27-.11.42-1,3.16-2.75,3.71-5.36,1.66-.72-.57-1.37-1.24-2-1.78a28.91,28.91,0,0,1-3.37,1.05,3.92,3.92,0,0,1-3.5-1,10.06,10.06,0,0,1-3.18-4.71c-1-3.51-5.72-7.17-9.49-7.52l-3-.26c1,2.4,2,4.61,4.48,5.56a5,5,0,0,1,3.09,4.12,3.89,3.89,0,0,1-1.88,4c-.33.24-.68.45-1.07.71.48.69,1,1.34,1.42,2.07,1,1.75.46,3-1.44,3.59-1.22.39-1.35.85-.43,1.71.51.47,1.08.87,1.68,1.35-4.89-.65-7.35-3.85-6.09-8.32a1.4,1.4,0,0,0-.24-1.16c-2.93-3-4.11-6.69-4.8-10.65-.46-2.65-1-5.3-1.53-7.93a10.8,10.8,0,0,0-.88-1.9C166.24,226.22,165.35,226.25,164.61,226Z"/><path class="cls-5" d="M97,216.66l5.56,9.3c-1.75.14-2.48,1.43-2.83,2.83-.64,2.61-1.13,5.26-1.58,7.92-.7,4.08-1.86,7.92-4.91,10.95a1.36,1.36,0,0,0-.2,1c.06.62.27,1.23.32,1.86a5.09,5.09,0,0,1-2.23,5,31.85,31.85,0,0,1-3.95,1.84l-.13-.28a24.26,24.26,0,0,0,1.9-1.66c.52-.55.43-1-.38-1.33-2.52-.88-2.91-2.12-1.38-4.3.32-.45.66-.88,1-1.38l-.65-.43a4.68,4.68,0,0,1-.22-8,1.79,1.79,0,0,1,.38-.2,8,8,0,0,0,5-5.65,12.24,12.24,0,0,0-12.49,8.2,8.66,8.66,0,0,1-4.05,4.83,5,5,0,0,1-4.79-.36c-.29-.15-.56-.35-.81-.52a35.63,35.63,0,0,1-2.82,2.36c-2.09,1.42-3.74.82-4.55-1.57l-.17-.53c-.34-1.11-1-1.32-1.71-.44a38.75,38.75,0,0,0-2.25,3.16,9.7,9.7,0,0,1,9.52-10.33c.34,0,.82,0,1-.26,2.21-2.75,5.18-4.5,8.11-6.3.85-.52,1.72-1,2.61-1.52-2.13-1.67-4.55-1.54-7-1.24a2.09,2.09,0,0,0-.84.48,11.24,11.24,0,0,1-5.87,2.13c-3,.25-4.71-.87-6.1-3.93-.71.14-1.42.35-2.14.43-2.23.24-3.44-.81-3.57-3-.09-1.59-.64-1.89-2.09-1.1a11.88,11.88,0,0,0-1.2.8,4.6,4.6,0,0,1-1.23.73c.22-.41.43-.83.67-1.22,2.84-4.64,6.91-5.88,11.78-3.47a4.52,4.52,0,0,0,3.48.34,18.35,18.35,0,0,1,12,.66c2.7,1.14,5.34,1.31,7.22.5-.75-1.37-1.5-2.75-2.26-4.11-.9-1.6-3.73-2.34-5.54-1.63a11.41,11.41,0,0,1-3.51.85,3.76,3.76,0,0,1-3.9-2.84c-.13-.38-.23-.77-.34-1.16-.89.08-1.73.23-2.57.23-2.15,0-3.12-1.06-3-3.2.12-1.71-.32-2-1.93-1.41a11.17,11.17,0,0,0-1.1.53c-.36.19-.71.39-1.07.6,1-3.08,5.68-5.29,9.06-4.19a30.08,30.08,0,0,1,3.53,1.8,2.34,2.34,0,0,0,1.28.26c.72-.11,1.42-.42,2.13-.59a10.6,10.6,0,0,1,8.19,1.46,28.63,28.63,0,0,1,8.07,7.69c.45.59.87,1.2,1.35,1.87Z"/><path class="cls-6" d="M175.14,46.85c2.36-3.68,4.66-7.4,7.14-11,.64-.93,1.87-1.46,2.83-2.17,3.79-.33,7.58-.82,11.37-.92a25.19,25.19,0,0,1,6.79.82c6.27,1.6,8.81,5.85,7.53,12.19-.12.61-.3,1.21-.45,1.81-.11,0-.21,0-.24,0-2.63-3.19-6.42-3.78-10.35-2a31.41,31.41,0,0,1-9,2.78,38.19,38.19,0,0,1-14.72-1.21C175.77,47,175.46,46.94,175.14,46.85Z"/><path class="cls-6" d="M82.06,33.67a6.73,6.73,0,0,1,3.62,3.1c2.19,3.31,4.23,6.71,6.33,10.08-7,2-14.08,2.66-21.14.16-1-.36-2-.79-3-1.22-4.61-2.06-7.39-1.6-11,1.8-2.18-6.06-.46-11.28,5.14-13.45A23.55,23.55,0,0,1,72,32.72C75.37,32.91,78.71,33.34,82.06,33.67Z"/><path class="cls-7" d="M94.07,50.65l5.57,11.19a24.67,24.67,0,0,1-9.9,5A17.72,17.72,0,0,1,74,63a8.12,8.12,0,0,1-2.8-4.79c.14,0,.23-.06.26,0C74.5,61,78,60.93,81.57,59.52c4.56-1.79,8.26-4.86,11.76-8.19Z"/><path class="cls-8" d="M167.53,61.86,173.1,50.7c2.39,2,4.66,4.13,7.2,5.88a28.58,28.58,0,0,0,6.48,3.29c3.51,1.27,5.62.73,9.08-1.7l.28.13a23.41,23.41,0,0,1-1.64,3.23c-2.16,3-5.35,4.4-8.84,5.27-6.51,1.63-12.07-.52-17.23-4.29Z"/><path class="cls-5" d="M206.89,210.42l.32.28-.07.12-.4-.23Z"/><path class="cls-9" d="M178.59,145.91,169,133.15c3-4,6-8,9-11.92a1.13,1.13,0,0,0,0-1.69c-2.35-3-4.64-6.13-7-9.27l7-5.26,6.14,8.1,9.62-12.74,9.63,12.74,6.13-8.1,7,5.26-7.62,10.12,9.61,12.76-9.61,12.76L216.43,156l-7,5.26-6.12-8.11-9.63,12.74-9.63-12.74-6.13,8.1L171,156Zm5.49-7.26,4.15-5.51-4.16-5.49-4.14,5.5Zm9.62,12.76c1.33-1.76,2.57-3.37,3.76-5a.93.93,0,0,0,.09-.84c-1.23-1.7-2.51-3.36-3.85-5.13l-4.14,5.49Zm0-36.52c-1.33,1.76-2.57,3.37-3.76,5a.93.93,0,0,0-.09.84c1.23,1.69,2.51,3.35,3.86,5.13,1.34-1.78,2.61-3.45,3.84-5.15a.82.82,0,0,0,0-.75C196.3,118.31,195,116.67,193.7,114.89Zm9.63,12.76-4.15,5.51,4.16,5.48,4.14-5.49Z"/><path class="cls-10" d="M56.87,150l-1.28-2.19-2.12.77-1.6-4.15,2.13-.88a29.7,29.7,0,0,1-.48-14.39,28,28,0,0,1,6.69-12.73l-2.15-1.75,3.25-3.43,2.19,2c11-7.57,22.12-8,33.62-1.26l1.53-1.64,3.29,3-1.29,1.53a28,28,0,0,1,8.58,24.35l1.8.46-.9,4.33-1.95-.31a28.48,28.48,0,0,1-9.15,13.19,29.3,29.3,0,0,1-14.89,6.21v2.23H79.69v-1.95l-4.31-.52-2.18-.63h0l-2.68-.89h0c-.15-.15-.27-.35-.45-.43a26.85,26.85,0,0,1-7.34-4.53,5.78,5.78,0,0,0-1.11-.61h0l-.23-.23h0l-.23-.23h0l-.23-.23h0l-.23-.23h0l-.23-.23h0l-.23-.23h0l-.23-.23h0L59,152.86h0l-.67-.9h0l-.67-.9h0l-.45-.68h0Zm37-34.47c-8-5.34-19.65-4.73-26.85,1a2.86,2.86,0,0,0,.27.33c2.48,2.33,4.94,4.68,7.46,7a1.57,1.57,0,0,0,1.34.12c2.58-1,5.24-1.57,7.89-.65,1.79.62,2.81.22,4-1.21C89.8,119.77,91.88,117.71,93.91,115.49Zm-9.81,42.85c8.78-.72,17.19-7.63,19.49-15.67-3.46-.75-6.91-1.51-10.38-2.21a1.14,1.14,0,0,0-.94.48,13.17,13.17,0,0,1-7.58,6.13,1,1,0,0,0-.57.76C84.1,151.3,84.11,154.78,84.11,158.34ZM71.71,127.15l-8.15-7.62c-6.08,6.3-7.47,16-5,22.26l10.42-4A12.3,12.3,0,0,1,71.71,127.15ZM60.21,146c3,6.41,11,12.23,19.4,12.44,0-3.51,0-7,0-10.52,0-.22-.43-.57-.7-.63a12.79,12.79,0,0,1-7.66-4.73,1.13,1.13,0,0,0-1-.36C66.9,143.46,63.56,144.75,60.21,146Zm13-10.85a8.06,8.06,0,0,0,8,7.86,8,8,0,0,0,7.9-7.59,7.81,7.81,0,0,0-7.87-8A7.9,7.9,0,0,0,73.23,135.18Zm16.82-8.75a12.64,12.64,0,0,1,3.64,9.48l11,2.3c1.51-7.19-2.45-16.4-7.19-19.87Z"/><path class="cls-11" d="M102.18,36.72a13.75,13.75,0,0,1-4.09,4.83,3.76,3.76,0,0,1-4.82-.06,1.68,1.68,0,0,1-.48-1.29c.47-3.2,3-4.9,6.45-4.27C100.2,36.11,101.14,36.43,102.18,36.72Z"/><path class="cls-11" d="M165,36.82a9.73,9.73,0,0,1,5.27-.93,4.84,4.84,0,0,1,4.11,4.56,1.48,1.48,0,0,1-.47,1,3.53,3.53,0,0,1-4.13.48C167.61,40.86,166.31,38.93,165,36.82Z"/><path class="cls-12" d="M61.63,155.75a5.78,5.78,0,0,1,1.11.61,26.85,26.85,0,0,0,7.34,4.53c.18.08.3.28.45.43-2.14-1.13-4.32-2.19-6.4-3.42A17.85,17.85,0,0,1,61.63,155.75Z"/><path class="cls-12" d="M70.53,161.31l2.68.89Z"/><path class="cls-12" d="M73.2,162.19l2.18.63Z"/><path class="cls-12" d="M59,152.86l1.12,1.34Z"/><path class="cls-12" d="M57.63,151.07l.67.9Z"/><path class="cls-12" d="M58.29,152l.67.9Z"/><path class="cls-12" d="M57.19,150.4l.45.68Z"/><path class="cls-12" d="M56.87,150l.32.46Z"/><path class="cls-12" d="M60.07,154.19l.23.23Z"/><path class="cls-12" d="M60.3,154.41l.23.23Z"/><path class="cls-12" d="M60.52,154.63l.23.23Z"/><path class="cls-12" d="M60.74,154.86l.23.23Z"/><path class="cls-12" d="M61.41,155.53l.23.23Z"/><path class="cls-12" d="M61.18,155.3l.23.23Z"/><path class="cls-12" d="M61,155.08l.23.23Z"/><path class="cls-13" d="M184.08,138.65l-4.15-5.5,4.14-5.5,4.16,5.49Z"/><path class="cls-13" d="M193.7,151.41l-4.14-5.5,4.14-5.49c1.34,1.77,2.62,3.43,3.85,5.13a.93.93,0,0,1-.09.84C196.27,148,195,149.65,193.7,151.41Z"/><path class="cls-13" d="M193.7,114.89c1.34,1.78,2.6,3.42,3.81,5.09a.82.82,0,0,1,0,.75c-1.23,1.7-2.5,3.37-3.84,5.15-1.35-1.78-2.63-3.44-3.86-5.13a.93.93,0,0,1,.09-.84C191.13,118.26,192.37,116.65,193.7,114.89Z"/><path class="cls-13" d="M203.33,127.65l4.14,5.5-4.14,5.49-4.16-5.48Z"/><path class="cls-14" d="M93.91,115.49c-2,2.22-4.11,4.29-5.93,6.56-1.15,1.43-2.17,1.83-4,1.21-2.65-.92-5.31-.36-7.89.65a1.57,1.57,0,0,1-1.34-.12c-2.52-2.28-5-4.63-7.46-7a2.86,2.86,0,0,1-.27-.33C74.26,110.75,85.89,110.14,93.91,115.49Z"/><path class="cls-14" d="M84.11,158.34c0-3.56,0-7,0-10.51a1,1,0,0,1,.57-.76,13.17,13.17,0,0,0,7.58-6.13,1.14,1.14,0,0,1,.94-.48c3.46.7,6.92,1.46,10.38,2.21C101.3,150.71,92.89,157.62,84.11,158.34Z"/><path class="cls-14" d="M71.71,127.15A12.3,12.3,0,0,0,69,137.82l-10.42,4c-2.46-6.25-1.06-16,5-22.26Z"/><path class="cls-14" d="M60.21,146c3.35-1.28,6.68-2.57,10-3.8a1.13,1.13,0,0,1,1,.36,12.79,12.79,0,0,0,7.66,4.73c.28.06.7.41.7.63,0,3.51,0,7,0,10.52C71.22,158.25,63.18,152.43,60.21,146Z"/><path class="cls-14" d="M73.23,135.18a7.9,7.9,0,0,1,8-7.74,7.81,7.81,0,0,1,7.87,8,8,8,0,0,1-7.9,7.59A8.06,8.06,0,0,1,73.23,135.18Z"/><path class="cls-14" d="M90.05,126.43l7.4-8.08c4.74,3.47,8.69,12.68,7.19,19.87l-11-2.3A12.64,12.64,0,0,0,90.05,126.43Z"/><path class="cls-15" d="M266.81,35.53c0-.58,0-1.16-.06-1.74-.06-4.73-.39-9.61-.86-14.47-.44-5.53-1-11.05-1.45-16.58-.08-.91-.26-1.82-.39-2.74H4L4,.31H3.72c-.13.93-.31,1.83-.39,2.74-.37,4.34-.78,8.69-1.16,13A184.06,184.06,0,0,0,1,34.57v.26A189.48,189.48,0,0,0,.18,63.07V74.52a3.69,3.69,0,0,1,.2.79c.09,3.15.1,6.3.26,9.44.5,9.88.89,19.76,1.64,29.62.62,8.22,1.53,16.43,2.6,24.6,1.14,8.71,2.5,17.4,4,26.06a381.69,381.69,0,0,0,9.79,42.2A317.45,317.45,0,0,0,38,258.19c9.91,20.31,22.09,39.1,37.49,55.74a185.44,185.44,0,0,0,57.31,42.12,1.68,1.68,0,0,0,1.63.06,183.73,183.73,0,0,0,47.66-32.35c.74-.69,1.46-1.38,2.19-2.08l.17-.16.07-.07q3.93-3.8,7.69-7.83c15.39-16.63,27.57-35.42,37.49-55.74a317.44,317.44,0,0,0,19.39-50.95,381.69,381.69,0,0,0,9.79-42.2c1.48-8.66,2.84-17.35,4-26.06,1.07-8.18,2-16.38,2.6-24.6.75-9.86,1.14-19.74,1.64-29.62.16-3.14.16-6.3.26-9.44a3.68,3.68,0,0,1,.2-.79V63.38A190.52,190.52,0,0,0,266.81,35.53ZM184.65,315.14l-.85.87a180.75,180.75,0,0,1-33.94,26.67c-4.06,2.39-8.23,4.6-12.37,6.87-.84.42-1.67.86-2.52,1.27a1.77,1.77,0,0,1-1.83,0c-6.24-3.51-12.66-6.73-18.69-10.57-25.08-16-44.62-37.33-60.14-62.53C42.18,258,33.11,236.92,26.06,214.92a370.35,370.35,0,0,1-11-43.08c-1.77-9.22-3.28-18.49-4.68-27.77-1-6.55-1.67-13.14-2.33-19.73-.68-6.74-1.28-13.49-1.71-20.26-.46-7.14-.85-14.28-1-21.43C5.2,70.54,5,58.41,5.34,46.31S6.68,21.83,7.42,9.59c.1-1.62.32-3.23.5-4.85H259.8c.18,1.72.44,3.44.54,5.16.74,12.24,1.74,24.47,2.09,36.72s.14,24.23,0,36.35c-.1,7.15-.5,14.29-1,21.43-.43,6.76-1,13.51-1.71,20.26-.66,6.59-1.35,13.18-2.33,19.73-1.4,9.28-2.9,18.55-4.68,27.77a370.35,370.35,0,0,1-11,43.08c-7.05,22-16.11,43.1-28.25,62.81a210.3,210.3,0,0,1-26.34,34.57C186.3,313.46,185.47,314.3,184.65,315.14Z"/></g></g></g></svg>