<?xml version="1.0" encoding="UTF-8"?>
<svg width="39px" height="44px" viewBox="0 0 39 44" version="1.1" xmlns="http://www.w3.org/2000/svg" xmlns:xlink="http://www.w3.org/1999/xlink">
    <!-- Generator: Sketch 54.1 (76490) - https://sketchapp.com -->
    <title>make-a-donation</title>
    <desc>Created with Sketch.</desc>
    <g id="Mobile-Final-Designs" stroke="none" stroke-width="1" fill="none" fill-rule="evenodd">
        <g id="1---Home" transform="translate(-36.000000, -1336.000000)">
            <g id="Group-4-Copy-2" transform="translate(13.000000, 1316.000000)">
                <g id="make-a-donation" transform="translate(23.000000, 20.000000)">
                    <path d="M38.8532763,7.52664558 L38.8532763,0 C36.7236167,0.93352186 32.7172688,2.26900465 30.8527367,2.37509581 C28.9881042,2.48118698 20.2260391,1.10531721 17.8522493,1.69946791 C15.9418047,2.17768186 5.45194047,10.0716279 2.32295442,12.248506 C-2.67247256,15.7238958 1.74829395,16.2809749 3.84580465,15.477053 C5.95637581,14.6681079 12.758266,10.8686177 12.758266,10.8686177 C12.7367665,11.6383814 12.8531051,12.728026 13.5415926,13.904573 C13.5415926,13.904573 14.3201972,14.996026 15.2532167,16.0644726 C13.2398958,16.9824223 11.8368,19.0132242 11.8368,21.3663181 C11.8368,23.3651721 12.8492874,25.1317507 14.3882121,26.1812093 L4.32120558,26.1812093 C3.76372465,26.1812093 3.31173209,26.6331014 3.31173209,27.1905823 L3.31173209,42.697373 C3.31173209,43.2552558 3.76372465,43.7071479 4.32120558,43.7071479 L31.0009228,43.7071479 C31.5583033,43.7071479 32.0102958,43.2552558 32.0102958,42.697373 L32.0102958,27.1905823 C32.0102958,26.6331014 31.5583033,26.1812093 31.0009228,26.1812093 L20.9340167,26.1812093 C22.4727405,25.1318512 23.4853284,23.3652726 23.4853284,21.3663181 C23.4853284,19.9054549 22.9434195,18.5695702 22.0516912,17.5461321 C22.0410419,17.5371907 22.0315981,17.5274456 22.0226567,17.5176 C23.4775926,16.7924428 25.0068726,15.4931274 28.7095144,13.9787163 C34.9456856,11.4280074 37.0578642,8.53119628 38.8532763,7.52664558 Z M21.6725358,13.4317842 C20.5038251,14.2568037 19.7062326,15.0626344 19.2409786,15.7615702 C18.9786642,15.6875274 18.7090158,15.6314679 18.4333395,15.5943963 C18.1923237,14.8142847 17.778307,13.788134 17.1474865,12.4293433 C17.1474865,12.4293433 16.857946,11.7482902 16.9533879,10.93392 C17.1914902,10.023907 18.0132949,9.04798884 20.3354456,8.7483014 C24.2455479,8.24376558 24.8004167,10.2205172 23.0334363,12.2786456 C22.6563907,12.6693544 22.2009823,13.0587572 21.6725358,13.4317842 Z M22.2228837,28.586746 C22.7775516,28.586746 23.2289414,29.0378344 23.2289414,29.5927033 C23.2289414,30.1472707 22.7777526,30.59856 22.2228837,30.59856 L13.0992447,30.59856 C12.5445767,30.59856 12.0933879,30.1472707 12.0933879,29.5927033 C12.0933879,29.0380353 12.5445767,28.586746 13.0992447,28.586746 L22.2228837,28.586746 Z" id="Shape" fill="#013DA2" fill-rule="nonzero"></path>
                    <path d="M17.6610642,25.6563795 C15.2954121,25.6563795 13.3707014,23.7319702 13.3707014,21.3662177 C13.3707014,19.0005656 15.2954121,17.0760558 17.6610642,17.0760558 C18.01008,17.0760558 18.3489488,17.118854 18.673853,17.19792 C18.6733507,17.8778679 19.2025005,18.2657637 20.0751405,18.1795647 C20.2091609,18.1664037 20.3391628,18.1478177 20.4662512,18.1242084 C21.3746567,18.911654 21.9511256,20.0725284 21.9511256,21.3662177 C21.951226,23.7319702 20.0267163,25.6563795 17.6610642,25.6563795 Z" id="Path" fill="#FFC72C" fill-rule="nonzero"></path>
                    <text id="£" font-family="Monda-Bold, Monda" font-size="5.84172" font-weight="bold" fill="#013DA2">
                        <tspan x="15.795" y="23.4025">£</tspan>
                    </text>
                </g>
            </g>
        </g>
    </g>
</svg>