<?xml version="1.0" encoding="UTF-8"?>
<svg width="48px" height="40px" viewBox="0 0 48 40" version="1.1" xmlns="http://www.w3.org/2000/svg" xmlns:xlink="http://www.w3.org/1999/xlink">
    <!-- Generator: Sketch 54.1 (76490) - https://sketchapp.com -->
    <title>fan</title>
    <desc>Created with Sketch.</desc>
    <g id="Mobile-Final-Designs" stroke="none" stroke-width="1" fill="none" fill-rule="evenodd">
        <g id="1---Home" transform="translate(-29.000000, -1077.000000)" fill-rule="nonzero">
            <g id="Group-4-Copy" transform="translate(13.000000, 1052.000000)">
                <g id="fan" transform="translate(16.000000, 25.000000)">
                    <polygon id="Path" fill="#013DA2" points="5.70171468 12.1262324 0 13 0.814582156 9.42567178 0 6.01024548 5.70171468 5.13647784 6.61793934 5 7 9.31355111 5.70171468 9.50492944"></polygon>
                    <path d="M30.1990557,18 C30.0411862,18 29.8872103,17.9509579 29.7558885,17.8598796 L27.3563432,16.1931837 C26.988571,15.938017 26.8894601,15.4206776 27.1344056,15.0379275 C27.1931642,14.9461117 27.2682053,14.8675705 27.3563432,14.8067288 L29.7558885,13.140033 C30.1236607,12.8848663 30.6202769,12.9881129 30.8655764,13.3708629 C31.1105218,13.7539817 31.0114109,14.2713212 30.6439928,14.5268566 L29.239096,15.4999563 L30.6408071,16.4734246 C31.0082252,16.7285913 31.1073361,17.2459308 30.8623906,17.6290495 C30.7144323,17.8598796 30.4655932,17.9992625 30.1990557,18 L30.1990557,18 Z" id="Path" fill="#013DA2"></path>
                    <path d="M24.5,28 C23.6716814,28 23,27.2167155 23,26.2499032 L23,21 L26,21 L26,26.2499032 C26,27.2167155 25.3283186,28 24.5,28 Z" id="Path" fill="#F6BB92"></path>
                    <path d="M23,23.4451327 C23.9228982,24.1849558 25.0771018,24.1849558 26,23.4451327 L26,22 L23,22 L23,23.4451327 Z" id="Path" fill="#EEB58E"></path>
                    <polygon id="Path" fill="#013DA2" points="30 40 18 40 18 28.2104479 19.7143941 24 29.142803 24 30 28.2104479"></polygon>
                    <path d="M27,33.4998156 C27,34.8808172 25.880531,36 24.5,36 C23.119469,36 22,34.8808172 22,33.4998156 C22,32.1191828 23.119469,31 24.5,31 C25.880531,31 27,32.1191828 27,33.4998156 Z" id="Path" fill="#FFC72C"></path>
                    <path d="M42,10 L29.084981,8.14077074 C25.7106824,7.65445786 22.2893176,7.65445786 18.915019,8.14077074 L6,10 L6.00000008,5.24124484 C5.99963796,3.51276957 7.20888237,2.04962534 8.83086278,1.8164093 L18.915019,0.364734667 C22.2893176,-0.121578222 25.7106824,-0.121578222 29.084981,0.364734667 L39.1691372,1.8164093 C40.7911176,2.04962534 42.000362,3.51276957 41.9999999,5.24124484 L42,10 Z" id="Path" fill="#013DA2"></path>
                    <polygon id="Path" fill="#013DA2" points="42.3195882 12.2257244 48 13 47.1884613 9.83266447 48 6.80613741 42.3195882 6.03186176 42.1238853 6 42 9.86178543 42.3195882 9.89844364"></polygon>
                    <g id="Group" transform="translate(15.000000, 3.000000)" fill="#FFC72C">
                        <path d="M3.17984694,2.66753467 L3.03312343,0.713541667 L5.75737402,0.414496556 L5.90409753,2.36935767 L3.17984694,2.66753467 Z M14.8190768,2.66753467 L12.0991311,2.37326389 L12.2469308,0.418402778 L14.9668766,0.718316 L14.8190768,2.66753467 Z M10.2864317,2.16840278 L9,2.02300344 L7.71356829,2.16406244 L7.56684468,0.210503444 L8.92717632,0.0611978889 C8.97560587,0.0555555556 9.02439413,0.0555555556 9.07282368,0.0611978889 L10.4331553,0.210503444 L10.2864317,2.16840278 Z" id="Shape"></path>
                        <polygon id="Path" points="0.00896840816 1.04600689 1.22006535 0.913194444 1.36643014 2.86675344 0.155333204 2.999566"></polygon>
                        <polygon id="Path" points="16.6328523 2.86675344 16.7795759 0.913194444 17.9906729 1.046441 17.8439493 3"></polygon>
                    </g>
                    <path d="M37.3471552,7.04146079 C36.232868,6.81251963 35.1492951,7.55474387 34.9264376,8.69944968 C34.9221519,8.72146334 34.9182234,8.74384379 34.9146519,8.76585736 L34.4567941,11.5883643 L32.8428635,19.8797767 L28,24.8544773 L29.6142878,29 L36.071082,22.3669436 L38.4925138,12.4175422 L38.9718001,9.46075244 C39.1539432,8.33622577 38.4353709,7.26563237 37.3471552,7.04146079 L37.3471552,7.04146079 Z" id="Path" fill="#F6BB92"></path>
                    <polygon id="Path" fill="#FFC72C" points="28 24.7327758 29.5459334 29 33 25.1859724 30.4748615 22"></polygon>
                    <path d="M24.4998064,22 C22.5669562,22 21,20.6071587 21,18.8890801 L21,15 L27.1249516,15 L28,15.777816 L28,18.8890801 C27.9996128,20.6071587 26.4326567,22 24.4998064,22 Z" id="Path" fill="#F6BB92"></path>
                    <path d="M28,15 L21,15 L21,13.3335792 C21,11.4923667 22.5670428,10 24.5,10 C26.4329572,10 28,11.4923667 28,13.3335792 L28,15 Z" id="Path" fill="#744630"></path>
                    <polygon id="Path" fill="#013DA2" points="21 14 28 14 28 16 21 16"></polygon>
                    <path d="M15.15719,19.8783002 L13.5432771,11.5855456 L13.0854244,8.76588428 C12.8989976,7.614755 11.8390079,6.83718309 10.7186617,7.02909916 C9.59831546,7.22101523 8.84153708,8.30976257 9.028321,9.46089195 L9.50760201,12.4148578 L11.9290071,22.3658698 L18.38573,29 L20,24.8538062 L15.15719,19.8783002 Z" id="Path" fill="#F6BB92"></path>
                    <polygon id="Path" fill="#FFC72C" points="20 24.8334825 16.9400677 22 14 25.1107833 18.2000398 29"></polygon>
                </g>
            </g>
        </g>
    </g>
</svg>