<?xml version="1.0" encoding="UTF-8"?>
<svg width="1041px" height="462px" viewBox="0 0 1041 462" version="1.1" xmlns="http://www.w3.org/2000/svg" xmlns:xlink="http://www.w3.org/1999/xlink">
    <!-- Generator: Sketch 54.1 (76490) - https://sketchapp.com -->
    <title>SW19</title>
    <desc>Created with Sketch.</desc>
    <g id="Desktop" stroke="none" stroke-width="1" fill="none" fill-rule="evenodd" opacity="0.0666620164">
        <g id="1---Home" transform="translate(-201.000000, -86.000000)" fill="#FFFFFF" fill-rule="nonzero">
            <g id="Group-6">
                <path d="M422.979068,430.337079 C423.467473,461.812891 415.408908,488.674046 398.80313,510.921348 C387.895413,526.082473 372.510879,536.71158 352.649066,542.808989 C341.904151,546.26968 329.450005,548 315.286253,548 C288.91237,548 267.097264,541.408306 249.840279,528.224719 C235.513726,517.34826 224.117774,502.640542 215.652084,484.101124 C207.186393,465.561705 202.302414,444.179896 201,419.955056 L264.736564,415.505618 C267.666995,441.707996 274.585966,460.659118 285.493683,472.359551 C293.470968,481.258471 302.669129,485.460677 313.08844,484.966292 C327.740597,484.471908 339.462147,477.221044 348.253441,463.213483 C352.81189,456.127305 355.09108,446.157368 355.09108,433.303371 C355.09108,414.351965 346.706916,395.648032 329.938337,377.191011 C316.588594,364.501809 296.645679,345.468292 270.108995,320.089888 C247.805156,298.33697 232.095023,278.809075 222.978126,261.505618 C213.047219,242.059828 208.08184,220.966406 208.08184,198.224719 C208.08184,157.190806 221.675582,126.127446 248.863473,105.033708 C265.632053,92.3445058 286.470364,86 311.379031,86 C335.310887,86 355.823599,91.4381479 372.917782,102.314607 C386.104723,110.719143 396.768078,122.460599 404.908165,137.539326 C413.048252,152.618053 418.013631,169.962449 419.80445,189.573034 L355.335282,201.438202 C353.544462,182.981181 348.334885,168.644246 339.706392,158.426966 C333.519926,150.846404 324.647364,147.05618 313.08844,147.05618 C300.87831,147.05618 291.51735,152.576724 285.00528,163.617978 C279.795624,172.516898 277.190835,183.557987 277.190835,196.741573 C277.190835,217.340927 285.981998,238.351953 303.564586,259.775281 C310.239457,267.850228 320.170215,277.408184 333.357156,288.449438 C348.986124,301.633025 359.323879,310.861397 364.370733,316.134831 C380.813709,332.943904 393.593455,349.505536 402.710352,365.820225 C406.943198,373.400787 410.361983,380.486858 412.966811,387.078652 C419.316079,403.06375 422.653465,417.483082 422.979068,430.337079 Z M753.71086,86 L825,86 L754.453456,542 L689.105078,542 L650.737659,293.25 L614.598025,542 L549.497179,542 L474,86 L545.28914,86 L580.933709,330.25 L613.607898,86 L684.897038,86 L720.541608,330.25 L753.71086,86 Z M916.797642,542 L916.797642,191 L858,191 L858,143 C874.55804,141.166657 890.397763,134.958386 905.519646,124.375 C920.641529,113.791614 931.581499,101.000075 938.339882,86 L987,86 L987,542 L916.797642,542 Z M1139.87696,86 C1169.40666,86 1194.01438,96.7881274 1213.70084,118.364706 C1232.56704,138.953044 1242,164.07044 1242,193.717647 L1242,440.529412 C1242,470.506032 1232.27995,495.911661 1212.83957,516.747059 C1193.39918,537.582457 1169.07855,548 1139.87696,548 C1110.01915,548 1085.41144,537.294225 1066.05308,515.882353 C1047.35093,495.294015 1038,470.176619 1038,440.529412 L1038,430.894118 L1108.13269,430.894118 L1108.13269,442.011765 C1108.13269,453.047114 1111.0446,462.270551 1116.86852,469.682353 C1122.69243,477.094155 1130.93601,480.8 1141.59952,480.8 C1152.42707,480.8 1160.75268,477.094155 1166.5766,469.682353 C1172.40051,462.270551 1175.31242,453.047114 1175.31242,442.011765 L1175.31242,351.835294 C1159.56325,366.000071 1142.5019,373.082353 1124.12786,373.082353 C1094.59816,373.082353 1072.45122,362.623634 1057.68637,341.705882 C1044.56206,323.423438 1038,298.058986 1038,265.611765 L1038,187.294118 L1038.24608,187.294118 C1039.2304,166.376366 1045.13625,147.600083 1055.96381,130.964706 C1066.79137,114.329329 1081.556,101.976511 1100.25814,93.9058824 C1112.39813,88.6352678 1125.60427,86 1139.87696,86 Z M1176,194.145897 C1176,183.148881 1173.00919,173.875418 1167.02747,166.325228 C1161.04576,158.775038 1152.49456,155 1141.37363,155 C1130.42119,155 1121.95424,158.775038 1115.97253,166.325228 C1109.99081,173.875418 1107,183.148881 1107,194.145897 L1107,278.100304 C1107,291.231069 1111.8864,302.145853 1121.65934,310.844985 C1126.04031,314.948349 1132.52743,317 1141.12088,317 C1158.81328,317 1169.84979,307.890669 1174.23077,289.671733 C1175.41026,284.255292 1176,280.069924 1176,277.115502 L1176,194.145897 Z" id="SW19"></path>
            </g>
        </g>
    </g>
</svg>