<svg xmlns="http://www.w3.org/2000/svg" viewBox="0 0 247.64 131.43"><defs><style>.cls-1{fill:#fff;}.cls-2{fill:#1d1d1b;}.cls-3{fill:#e30613;}</style></defs><title>iploughlane-sharp</title><g id="Layer_2" data-name="Layer 2"><g id="Layer_1-2" data-name="Layer 1"><rect class="cls-1" x="2.5" y="2.5" width="242.64" height="126.43" rx="12" ry="12"/><path class="cls-2" d="M233.14,131.43H14.5A14.52,14.52,0,0,1,0,116.93V14.5A14.52,14.52,0,0,1,14.5,0H233.14a14.52,14.52,0,0,1,14.5,14.5V116.93A14.52,14.52,0,0,1,233.14,131.43ZM14.5,5A9.51,9.51,0,0,0,5,14.5V116.93a9.51,9.51,0,0,0,9.5,9.5H233.14a9.51,9.51,0,0,0,9.5-9.5V14.5a9.51,9.51,0,0,0-9.5-9.5Z"/><path class="cls-3" d="M18,25.43V15.89H20v7.92h4.83v1.62Z"/><path class="cls-3" d="M25.78,20.68a6.13,6.13,0,0,1,.44-2.47,4.55,4.55,0,0,1,.9-1.32A3.73,3.73,0,0,1,28.36,16a5.28,5.28,0,0,1,2.07-.38A4.51,4.51,0,0,1,33.83,17a5.05,5.05,0,0,1,1.28,3.67,5,5,0,0,1-1.27,3.65,4.48,4.48,0,0,1-3.39,1.32A4.53,4.53,0,0,1,27,24.29,5,5,0,0,1,25.78,20.68Zm2-.07a3.61,3.61,0,0,0,.75,2.48,2.59,2.59,0,0,0,3.82,0,3.68,3.68,0,0,0,.75-2.51,3.62,3.62,0,0,0-.73-2.47,2.69,2.69,0,0,0-3.86,0A3.64,3.64,0,0,0,27.78,20.62Z"/><path class="cls-3" d="M36.65,25.43V15.81h1.89l3.94,6.42V15.81h1.8v9.62H42.33l-3.88-6.27v6.27Z"/><path class="cls-3" d="M46.33,15.81h3.55a7,7,0,0,1,1.83.18,3.23,3.23,0,0,1,1.45.89,4.21,4.21,0,0,1,.92,1.56,7.11,7.11,0,0,1,.32,2.27,6.34,6.34,0,0,1-.29,2,4.25,4.25,0,0,1-1,1.7,3.42,3.42,0,0,1-1.37.77,5.87,5.87,0,0,1-1.72.2H46.33Zm1.94,1.63v6.37h1.45a5.27,5.27,0,0,0,1.17-.09,1.79,1.79,0,0,0,.78-.4,2,2,0,0,0,.51-.93,6.29,6.29,0,0,0,.2-1.76,5.75,5.75,0,0,0-.2-1.71,2.21,2.21,0,0,0-.55-.93,1.85,1.85,0,0,0-.9-.45,8.76,8.76,0,0,0-1.59-.09Z"/><path class="cls-3" d="M55.65,20.68a6.13,6.13,0,0,1,.44-2.47,4.55,4.55,0,0,1,.9-1.32A3.73,3.73,0,0,1,58.22,16a5.28,5.28,0,0,1,2.07-.38A4.51,4.51,0,0,1,63.7,17,5.05,5.05,0,0,1,65,20.63a5,5,0,0,1-1.27,3.65,5.06,5.06,0,0,1-6.8,0A5,5,0,0,1,55.65,20.68Zm2-.07a3.61,3.61,0,0,0,.75,2.48,2.59,2.59,0,0,0,3.82,0A3.68,3.68,0,0,0,63,20.59a3.62,3.62,0,0,0-.73-2.47,2.69,2.69,0,0,0-3.86,0A3.64,3.64,0,0,0,57.65,20.62Z"/><path class="cls-3" d="M66.51,25.43V15.81H68.4l3.94,6.42V15.81h1.8v9.62H72.2l-3.88-6.27v6.27Z"/><path class="cls-3" d="M79.94,15.81h3.85a11.12,11.12,0,0,1,1.7.09,2.5,2.5,0,0,1,1,.4,2.47,2.47,0,0,1,.74.8,2.18,2.18,0,0,1,.29,1.13,2.28,2.28,0,0,1-1.35,2.09,2.53,2.53,0,0,1,1.35.87A2.32,2.32,0,0,1,88,22.64a2.86,2.86,0,0,1-.3,1.28,2.57,2.57,0,0,1-.83,1,2.75,2.75,0,0,1-1.3.46q-.48.05-2.34.07H79.94Zm1.94,1.6v2.22h1.27q1.14,0,1.41,0a1.28,1.28,0,0,0,.78-.34,1,1,0,0,0,.29-.75,1.06,1.06,0,0,0-.25-.73,1.12,1.12,0,0,0-.73-.34c-.19,0-.75,0-1.66,0Zm0,3.83v2.57h1.8A8.68,8.68,0,0,0,85,23.75a1.2,1.2,0,0,0,.71-.38,1.18,1.18,0,0,0,.27-.82,1.26,1.26,0,0,0-.21-.74,1.19,1.19,0,0,0-.61-.44,6.6,6.6,0,0,0-1.72-.14Z"/><path class="cls-3" d="M89.25,20.68a6.11,6.11,0,0,1,.44-2.47,4.53,4.53,0,0,1,.9-1.32A3.73,3.73,0,0,1,91.83,16a5.28,5.28,0,0,1,2.07-.38A4.51,4.51,0,0,1,97.3,17a5.05,5.05,0,0,1,1.28,3.67,5,5,0,0,1-1.27,3.65,4.48,4.48,0,0,1-3.39,1.32,4.53,4.53,0,0,1-3.41-1.31A5,5,0,0,1,89.25,20.68Zm2-.07A3.61,3.61,0,0,0,92,23.09a2.59,2.59,0,0,0,3.82,0,3.68,3.68,0,0,0,.75-2.51,3.62,3.62,0,0,0-.72-2.47,2.69,2.69,0,0,0-3.86,0A3.64,3.64,0,0,0,91.25,20.62Z"/><path class="cls-3" d="M100.1,25.43V15.81h4.09a7,7,0,0,1,2.24.26,2.21,2.21,0,0,1,1.12.92,2.77,2.77,0,0,1,.42,1.52,2.57,2.57,0,0,1-.64,1.79,3.06,3.06,0,0,1-1.9.89,4.54,4.54,0,0,1,1,.81,11,11,0,0,1,1.11,1.56l1.17,1.88h-2.32L105,23.34a13.62,13.62,0,0,0-1-1.41,1.49,1.49,0,0,0-.58-.4,3.21,3.21,0,0,0-1-.11H102v4ZM102,19.88h1.44a7.39,7.39,0,0,0,1.75-.12,1,1,0,0,0,.54-.41,1.26,1.26,0,0,0,.2-.72,1.15,1.15,0,0,0-.26-.78,1.19,1.19,0,0,0-.73-.38q-.24,0-1.42,0H102Z"/><path class="cls-3" d="M109.41,20.68a6.13,6.13,0,0,1,.44-2.47,4.55,4.55,0,0,1,.9-1.32A3.73,3.73,0,0,1,112,16a5.28,5.28,0,0,1,2.07-.38,4.51,4.51,0,0,1,3.4,1.32,5.05,5.05,0,0,1,1.28,3.67,5,5,0,0,1-1.27,3.65,5.06,5.06,0,0,1-6.8,0A5,5,0,0,1,109.41,20.68Zm2-.07a3.61,3.61,0,0,0,.75,2.48,2.59,2.59,0,0,0,3.82,0,3.68,3.68,0,0,0,.75-2.51,3.62,3.62,0,0,0-.73-2.47,2.69,2.69,0,0,0-3.86,0A3.64,3.64,0,0,0,111.41,20.62Z"/><path class="cls-3" d="M120.24,15.81h1.94V21a10.85,10.85,0,0,0,.07,1.61,1.56,1.56,0,0,0,.59.95,2.07,2.07,0,0,0,1.28.36,2,2,0,0,0,1.25-.34,1.34,1.34,0,0,0,.51-.83,10.86,10.86,0,0,0,.08-1.63V15.81h1.94v5.05a13,13,0,0,1-.16,2.45,2.72,2.72,0,0,1-.58,1.21,2.94,2.94,0,0,1-1.13.78,4.93,4.93,0,0,1-1.85.29,5.34,5.34,0,0,1-2.09-.32,3,3,0,0,1-1.12-.83,2.66,2.66,0,0,1-.54-1.07,11.68,11.68,0,0,1-.19-2.44Z"/><path class="cls-3" d="M134.44,21.9V20.27h4.19v3.83a5.26,5.26,0,0,1-1.77,1,6.44,6.44,0,0,1-2.35.45,5.26,5.26,0,0,1-2.63-.63,4,4,0,0,1-1.69-1.81,5.84,5.84,0,0,1-.56-2.56,5.54,5.54,0,0,1,.63-2.67,4.25,4.25,0,0,1,1.84-1.79,5,5,0,0,1,2.3-.48,4.6,4.6,0,0,1,2.8.75,3.39,3.39,0,0,1,1.3,2.08l-1.93.36a2,2,0,0,0-.76-1.12,2.31,2.31,0,0,0-1.4-.41,2.63,2.63,0,0,0-2,.81,3.4,3.4,0,0,0-.75,2.4,3.77,3.77,0,0,0,.76,2.57,2.54,2.54,0,0,0,2,.86,3.34,3.34,0,0,0,1.22-.24,4.19,4.19,0,0,0,1.05-.58V21.9Z"/><path class="cls-3" d="M140.42,25.43V15.81h1.94V19.6h3.81V15.81h1.94v9.62h-1.94V21.23h-3.81v4.21Z"/><path class="cls-3" d="M153.46,20.68a6.13,6.13,0,0,1,.44-2.47,4.53,4.53,0,0,1,.9-1.32A3.73,3.73,0,0,1,156,16a5.28,5.28,0,0,1,2.07-.38,4.51,4.51,0,0,1,3.4,1.32,5.05,5.05,0,0,1,1.28,3.67,5,5,0,0,1-1.27,3.65,4.48,4.48,0,0,1-3.39,1.32,4.53,4.53,0,0,1-3.41-1.31A5,5,0,0,1,153.46,20.68Zm2-.07a3.6,3.6,0,0,0,.75,2.48,2.59,2.59,0,0,0,3.82,0,3.68,3.68,0,0,0,.75-2.51,3.62,3.62,0,0,0-.73-2.47,2.69,2.69,0,0,0-3.86,0A3.64,3.64,0,0,0,155.46,20.62Z"/><path class="cls-3" d="M164.32,25.43V15.81h6.6v1.63h-4.65v2.28h4v1.63h-4v4.09Z"/><path class="cls-3" d="M176.23,25.43V15.81h2.91l1.75,6.56,1.73-6.56h2.91v9.62h-1.8V17.86l-1.91,7.57h-1.87L178,17.86v7.57Z"/><path class="cls-3" d="M187.45,25.43V15.81h7.13v1.63h-5.19v2.13h4.83v1.62h-4.83v2.62h5.37v1.62Z"/><path class="cls-3" d="M196.42,25.43V15.81h4.09a7,7,0,0,1,2.24.26,2.21,2.21,0,0,1,1.12.92,2.78,2.78,0,0,1,.42,1.52,2.57,2.57,0,0,1-.64,1.79,3.06,3.06,0,0,1-1.9.89,4.54,4.54,0,0,1,1,.81,11,11,0,0,1,1.11,1.56l1.17,1.88h-2.32l-1.4-2.09a13.62,13.62,0,0,0-1-1.41,1.49,1.49,0,0,0-.58-.4,3.21,3.21,0,0,0-1-.11h-.39v4Zm1.94-5.55h1.44a7.41,7.41,0,0,0,1.75-.12,1,1,0,0,0,.54-.41,1.25,1.25,0,0,0,.2-.72,1.15,1.15,0,0,0-.26-.78,1.19,1.19,0,0,0-.73-.38q-.24,0-1.42,0h-1.52Z"/><path class="cls-3" d="M208.29,25.43v-8h-2.85V15.81h7.65v1.63h-2.85v8Z"/><path class="cls-3" d="M213.7,20.68a6.13,6.13,0,0,1,.44-2.47,4.53,4.53,0,0,1,.9-1.32,3.73,3.73,0,0,1,1.24-.87,5.28,5.28,0,0,1,2.07-.38,4.51,4.51,0,0,1,3.4,1.32A5.05,5.05,0,0,1,223,20.63a5,5,0,0,1-1.27,3.65,4.48,4.48,0,0,1-3.39,1.32A4.53,4.53,0,0,1,215,24.29,5,5,0,0,1,213.7,20.68Zm2-.07a3.6,3.6,0,0,0,.75,2.48,2.59,2.59,0,0,0,3.82,0,3.68,3.68,0,0,0,.75-2.51,3.62,3.62,0,0,0-.73-2.47,2.69,2.69,0,0,0-3.86,0A3.64,3.64,0,0,0,215.7,20.62Z"/><path class="cls-3" d="M224.56,25.43V15.81h1.89l3.94,6.42V15.81h1.8v9.62h-1.95l-3.88-6.27v6.27Z"/><path class="cls-2" d="M19.13,42.64V37.06h6v5.58Zm0,25.87V45.73h6V68.51Z"/><path class="cls-2" d="M31.38,68.51V37.06H41.57a37,37,0,0,1,7.55.47,8.24,8.24,0,0,1,4.53,3.08,9.76,9.76,0,0,1,1.82,6.12,10.26,10.26,0,0,1-1.05,4.87,8.62,8.62,0,0,1-2.67,3.1,9.21,9.21,0,0,1-3.29,1.49,36.29,36.29,0,0,1-6.58.45H37.73V68.51Zm6.35-26.12v8.92h3.47a16.41,16.41,0,0,0,5-.49,4.17,4.17,0,0,0,2-1.54,4.23,4.23,0,0,0,.72-2.45,4.06,4.06,0,0,0-1-2.83,4.39,4.39,0,0,0-2.55-1.39,30.41,30.41,0,0,0-4.57-.21Z"/><path class="cls-2" d="M60.85,68.51V37.32H67.2V63.21H83v5.3Z"/><path class="cls-2" d="M86.23,53a20,20,0,0,1,1.44-8.06,14.81,14.81,0,0,1,2.93-4.31,12.24,12.24,0,0,1,4.06-2.83,17.27,17.27,0,0,1,6.78-1.24q6.95,0,11.12,4.31t4.17,12q0,7.62-4.14,11.92T101.52,69q-7,0-11.15-4.28T86.23,53Zm6.54-.21q0,5.34,2.47,8.1a8.48,8.48,0,0,0,12.49,0q2.43-2.73,2.43-8.2t-2.37-8.07a8.78,8.78,0,0,0-12.62,0Q92.77,47.34,92.77,52.76Z"/><path class="cls-2" d="M121.64,37.06H128v17a35.16,35.16,0,0,0,.24,5.25,5.09,5.09,0,0,0,1.94,3.1,6.76,6.76,0,0,0,4.19,1.17,6.39,6.39,0,0,0,4.07-1.1,4.36,4.36,0,0,0,1.65-2.71,35.42,35.42,0,0,0,.28-5.34V37.06h6.35V53.58a42.37,42.37,0,0,1-.52,8,8.86,8.86,0,0,1-1.9,3.95,9.6,9.6,0,0,1-3.7,2.56,16.11,16.11,0,0,1-6,1,17.42,17.42,0,0,1-6.83-1A9.77,9.77,0,0,1,124,65.3a8.66,8.66,0,0,1-1.78-3.49,38.23,38.23,0,0,1-.62-8Z"/><path class="cls-2" d="M168,56.95v-5.3h13.68V64.17a17.23,17.23,0,0,1-5.78,3.4A21.06,21.06,0,0,1,168.27,69a17.21,17.21,0,0,1-8.6-2.07,13.17,13.17,0,0,1-5.51-5.92,19.14,19.14,0,0,1-1.84-8.38,18.1,18.1,0,0,1,2.06-8.73,13.87,13.87,0,0,1,6-5.86,16.26,16.26,0,0,1,7.53-1.57q5.86,0,9.15,2.46a11.1,11.1,0,0,1,4.24,6.79L175,47a6.66,6.66,0,0,0-2.5-3.66A7.56,7.56,0,0,0,167.93,42a8.6,8.6,0,0,0-6.62,2.64q-2.46,2.64-2.46,7.83,0,5.6,2.49,8.4a8.31,8.31,0,0,0,6.52,2.8,11,11,0,0,0,4-.78,13.74,13.74,0,0,0,3.44-1.9v-4Z"/><path class="cls-2" d="M187.6,68.51V37.06h6.35V49.44h12.44V37.06h6.35V68.51h-6.35V54.76H193.95V68.51Z"/><path class="cls-2" d="M19.35,115.71V84.52H25.7v25.89H41.49v5.3Z"/><path class="cls-2" d="M74.37,115.71H67.46l-2.75-7.14H52.15l-2.6,7.14H42.82L55.06,84.27h6.71ZM62.68,103.27,58.34,91.6,54.1,103.27Z"/><path class="cls-2" d="M77.8,115.71V84.27H84l12.87,21v-21h5.9v31.44H96.37L83.7,95.2v20.51Z"/><path class="cls-2" d="M109.46,115.71V84.27h23.31v5.32h-17v7h15.79v5.3H115.81v8.56h17.57v5.3Z"/><path class="cls-3" d="M177.82,112.59l2.66-.26a3.24,3.24,0,0,0,1,2,3,3,0,0,0,2,.63,3,3,0,0,0,2-.56,1.66,1.66,0,0,0,.67-1.31,1.23,1.23,0,0,0-.28-.82,2.25,2.25,0,0,0-1-.59q-.48-.17-2.19-.59a7.41,7.41,0,0,1-3.08-1.34,3.52,3.52,0,0,1-1.25-2.72,3.48,3.48,0,0,1,.59-1.93,3.68,3.68,0,0,1,1.69-1.37,6.78,6.78,0,0,1,2.66-.47,5.71,5.71,0,0,1,3.84,1.12,3.94,3.94,0,0,1,1.35,3l-2.73.12a2.32,2.32,0,0,0-.75-1.5,2.75,2.75,0,0,0-1.73-.46,3.12,3.12,0,0,0-1.86.49,1,1,0,0,0-.43.84,1,1,0,0,0,.41.82,7.18,7.18,0,0,0,2.51.91,13.26,13.26,0,0,1,3,1,3.81,3.81,0,0,1,1.5,1.38,4.26,4.26,0,0,1-.11,4.33,3.87,3.87,0,0,1-1.83,1.51,7.67,7.67,0,0,1-2.95.49,5.86,5.86,0,0,1-3.94-1.19A5.16,5.16,0,0,1,177.82,112.59Z"/><path class="cls-3" d="M193,117l-3.23-13.53h2.8l2,9.3,2.47-9.3h3.25l2.37,9.45,2.08-9.45h2.75L204.28,117h-2.9l-2.7-10.12L196,117Z"/><path class="cls-3" d="M207.9,117V114.4h2.59V117Z"/><path class="cls-3" d="M219.24,117h-2.59v-9.78a9,9,0,0,1-3.35,2v-2.35a7.5,7.5,0,0,0,2.21-1.26,4.78,4.78,0,0,0,1.63-2.16h2.11Z"/><path class="cls-3" d="M223.17,113.86l2.51-.28a1.82,1.82,0,0,0,.48,1.14,1.42,1.42,0,0,0,1,.37,1.67,1.67,0,0,0,1.37-.74,6.3,6.3,0,0,0,.72-3.07,3.1,3.1,0,0,1-2.45,1.14,3.66,3.66,0,0,1-2.76-1.23,4.49,4.49,0,0,1-1.16-3.21,4.56,4.56,0,0,1,1.22-3.32,4.43,4.43,0,0,1,6.49.33q1.32,1.59,1.32,5.24t-1.38,5.35a4.45,4.45,0,0,1-3.58,1.64,3.79,3.79,0,0,1-2.57-.84A4.08,4.08,0,0,1,223.17,113.86ZM229,108.2a3,3,0,0,0-.58-1.95,1.7,1.7,0,0,0-1.33-.69,1.5,1.5,0,0,0-1.2.57,2.9,2.9,0,0,0-.47,1.86,3,3,0,0,0,.52,1.92,1.65,1.65,0,0,0,2.55,0A2.59,2.59,0,0,0,229,108.2Z"/></g></g></svg>