<?xml version="1.0" encoding="UTF-8"?>
<svg width="43px" height="43px" viewBox="0 0 43 43" version="1.1" xmlns="http://www.w3.org/2000/svg" xmlns:xlink="http://www.w3.org/1999/xlink">
    <!-- Generator: Sketch 54.1 (76490) - https://sketchapp.com -->
    <title>Group 2</title>
    <desc>Created with Sketch.</desc>
    <g id="Mobile-Final-Designs" stroke="none" stroke-width="1" fill="none" fill-rule="evenodd">
        <g id="10b---About-Us" transform="translate(-21.000000, -70.000000)">
            <g id="Group-2" transform="translate(21.000000, 70.000000)">
                <circle id="Oval" fill="#FFFFFF" cx="21.5" cy="21.5" r="21.5"></circle>
                <path d="M15,34.8082902 C15,34.4283228 15.0909082,33.8279834 15.2727273,33.0072539 C15.3787884,32.5360944 15.5378777,31.9129572 15.75,31.1378238 L18.5454545,20.6507772 C18.5757577,20.5291876 18.6022726,20.4075999 18.625,20.2860104 C18.6477274,20.1644208 18.6590909,20.0504323 18.6590909,19.9440415 C18.6590909,19.320895 18.4621232,18.9333341 18.0681818,18.7813472 C17.6742405,18.6293602 16.9545507,18.5305702 15.9090909,18.4849741 L15.9090909,17.253886 C16.7878832,17.1930912 18.0643856,17.0677039 19.7386364,16.8777202 C21.4128872,16.6877365 22.5984814,16.524353 23.2954545,16.3875648 L25.2954545,16 L21.6818182,29.2911917 C21.3787864,30.4310938 21.174243,31.221414 21.0681818,31.6621762 C20.7954532,32.7868795 20.6590909,33.5164059 20.6590909,33.8507772 C20.6590909,34.1851485 20.7348477,34.4017266 20.8863636,34.5005181 C21.0378795,34.5993096 21.2045445,34.6487047 21.3863636,34.6487047 C21.856063,34.6487047 22.4393905,34.2459453 23.1363636,33.4404145 C23.8333368,32.6348837 24.446967,31.7913688 24.9772727,30.9098446 L26,31.5709845 C24.4848409,33.8051925 23.3257616,35.3098407 22.5227273,36.0849741 C21.2045389,37.3616644 19.795462,38 18.2954545,38 C17.4469655,38 16.6856094,37.7378265 16.0113636,37.2134715 C15.3371178,36.6891165 15,35.8873975 15,34.8082902 Z M24.0109091,6 C24.8400041,6 25.5454516,6.29090618 26.1272727,6.87272727 C26.7090938,7.45454836 27,8.15999585 27,8.98909091 C27,9.81818596 26.7090938,10.5272698 26.1272727,11.1163636 C25.5454516,11.7054575 24.8400041,12 24.0109091,12 C23.181814,12 22.4727302,11.7054575 21.8836364,11.1163636 C21.2945425,10.5272698 21,9.81818596 21,8.98909091 C21,8.15999585 21.2945425,7.45454836 21.8836364,6.87272727 C22.4727302,6.29090618 23.181814,6 24.0109091,6 Z" id="i" fill="#013DA2" fill-rule="nonzero"></path>
            </g>
        </g>
    </g>
</svg>