<?xml version="1.0" encoding="UTF-8"?>
<svg width="43px" height="43px" viewBox="0 0 43 43" version="1.1" xmlns="http://www.w3.org/2000/svg" xmlns:xlink="http://www.w3.org/1999/xlink">
    <!-- Generator: Sketch 54.1 (76490) - https://sketchapp.com -->
    <title>Group 2</title>
    <desc>Created with Sketch.</desc>
    <g id="Mobile-Final-Designs" stroke="none" stroke-width="1" fill="none" fill-rule="evenodd">
        <g id="10c---Contact-Us" transform="translate(-21.000000, -70.000000)">
            <g id="Group-2" transform="translate(21.000000, 70.000000)">
                <g id="Group-4" fill="#FFFFFF">
                    <circle id="Oval" cx="21.5" cy="21.5" r="21.5"></circle>
                </g>
                <g id="envelope" transform="translate(10.000000, 13.000000)" fill="#013DA2" fill-rule="nonzero">
                    <path d="M23.5453125,5.94375 C23.728125,5.7984375 24,5.934375 24,6.1640625 L24,15.75 C24,16.9921875 22.9921875,18 21.75,18 L2.25,18 C1.0078125,18 0,16.9921875 0,15.75 L0,6.16875 C0,5.934375 0.2671875,5.803125 0.4546875,5.9484375 C1.5046875,6.7640625 2.896875,7.8 7.678125,11.2734375 C8.6671875,11.9953125 10.3359375,13.5140625 12,13.5046875 C13.6734375,13.51875 15.375,11.9671875 16.3265625,11.2734375 C21.1078125,7.8 22.4953125,6.759375 23.5453125,5.94375 Z M12,12 C13.0875,12.01875 14.653125,10.63125 15.440625,10.059375 C21.6609375,5.5453125 22.134375,5.1515625 23.56875,4.0265625 C23.840625,3.815625 24,3.4875 24,3.140625 L24,2.25 C24,1.0078125 22.9921875,0 21.75,0 L2.25,0 C1.0078125,-1.33226763e-15 0,1.0078125 0,2.25 L0,3.140625 C0,3.4875 0.159375,3.8109375 0.43125,4.0265625 C1.865625,5.146875 2.3390625,5.5453125 8.559375,10.059375 C9.346875,10.63125 10.9125,12.01875 12,12 Z" id="Shape"></path>
                </g>
            </g>
        </g>
    </g>
</svg>