<?xml version="1.0" encoding="UTF-8"?>
<svg width="43px" height="43px" viewBox="0 0 43 43" version="1.1" xmlns="http://www.w3.org/2000/svg" xmlns:xlink="http://www.w3.org/1999/xlink">
    <!-- Generator: Sketch 54.1 (76490) - https://sketchapp.com -->
    <title>make-a-donation</title>
    <desc>Created with Sketch.</desc>
    <defs>
        <circle id="path-1" cx="21.5" cy="21.5" r="21.5"></circle>
    </defs>
    <g id="Mobile-Final-Designs" stroke="none" stroke-width="1" fill="none" fill-rule="evenodd">
        <g id="10a---Donate" transform="translate(-21.000000, -70.000000)">
            <g id="make-a-donation" transform="translate(21.000000, 70.000000)">
                <mask id="mask-2" fill="white">
                    <use xlink:href="#path-1"></use>
                </mask>
                <use id="Mask" fill="#FFFFFF" xlink:href="#path-1"></use>
                <g mask="url(#mask-2)">
                    <g transform="translate(6.000000, 5.000000)">
                        <path d="M34.9679487,6.77398102 L34.9679487,0 C33.0512551,0.840169674 29.445542,2.04210419 27.7674631,2.13758623 C26.0892938,2.23306828 18.2034352,0.994785488 16.0670244,1.52952112 C14.3476242,1.95991367 4.90674642,9.06446512 2.09065898,11.0236554 C-2.4052253,14.1515062 1.57346456,14.6528774 3.46122419,13.9293477 C5.36073823,13.2012971 11.4824394,9.78175591 11.4824394,9.78175591 C11.4630899,10.4745433 11.5677946,11.4552234 12.1874333,12.5141157 C12.1874333,12.5141157 12.8881775,13.4964234 13.7278951,14.4580253 C11.9159062,15.2841801 10.65312,17.1119018 10.65312,19.2296863 C10.65312,21.0286549 11.5643587,22.6185756 12.9493909,23.5630884 L3.88908502,23.5630884 C3.38735219,23.5630884 2.98055888,23.9697913 2.98055888,24.4715241 L2.98055888,38.4276357 C2.98055888,38.9297302 3.38735219,39.3364331 3.88908502,39.3364331 L27.9008305,39.3364331 C28.4024729,39.3364331 28.8092662,38.9297302 28.8092662,38.4276357 L28.8092662,24.4715241 C28.8092662,23.9697913 28.4024729,23.5630884 27.9008305,23.5630884 L18.8406151,23.5630884 C20.2254664,22.618666 21.1367955,21.0287453 21.1367955,19.2296863 C21.1367955,17.9149094 20.6490776,16.7126132 19.846522,15.7915189 C19.8369377,15.7834716 19.8284383,15.774701 19.8203911,15.76584 C21.1298333,15.1131985 22.5061853,13.9438147 25.838563,12.5808447 C31.451117,10.2852067 33.3520778,7.67807665 34.9679487,6.77398102 Z M19.5052822,12.0886058 C18.4534426,12.8311233 17.7356093,13.556371 17.3168807,14.1854132 C17.0807978,14.1187747 16.8381142,14.0683211 16.5900056,14.0349567 C16.3730913,13.3328562 16.0004763,12.4093206 15.4327379,11.1864089 C15.4327379,11.1864089 15.1721514,10.5734612 15.2580491,9.840528 C15.4723412,9.02151628 16.2119654,8.14318995 18.301901,7.87347126 C21.8209931,7.41938902 22.3203751,9.19846549 20.7300927,11.050781 C20.3907516,11.402419 19.9808841,11.7528815 19.5052822,12.0886058 Z M20.0005953,25.7280714 C20.4997965,25.7280714 20.9060473,26.134051 20.9060473,26.6334329 C20.9060473,27.1325436 20.4999773,27.538704 20.0005953,27.538704 L11.7893202,27.538704 C11.2901191,27.538704 10.8840491,27.1325436 10.8840491,26.6334329 C10.8840491,26.1342318 11.2901191,25.7280714 11.7893202,25.7280714 L20.0005953,25.7280714 Z" id="Shape" fill="#013DA2" fill-rule="nonzero"></path>
                        <path d="M15.8949578,23.0907416 C13.7658709,23.0907416 12.0336313,21.3587732 12.0336313,19.2295959 C12.0336313,17.100509 13.7658709,15.3684502 15.8949578,15.3684502 C16.209072,15.3684502 16.514054,15.4069686 16.8064677,15.478128 C16.8060156,16.0900811 17.2822504,16.4391873 18.0676264,16.3616082 C18.1882448,16.3497633 18.3052465,16.3330359 18.419626,16.3117875 C19.2371911,17.0204886 19.756013,18.0652755 19.756013,19.2295959 C19.7561034,21.3587732 18.0240447,23.0907416 15.8949578,23.0907416 Z" id="Path" fill="#FFC72C" fill-rule="nonzero"></path>
                        <text id="£" fill="none" font-family="Monda-Bold, Monda" font-size="5.257548" font-weight="bold">
                            <tspan x="14.2155" y="20.76225" fill="#013DA2">£</tspan>
                        </text>
                    </g>
                </g>
            </g>
        </g>
    </g>
</svg>