<?xml version="1.0" encoding="UTF-8"?>
<svg width="43px" height="43px" viewBox="0 0 43 43" version="1.1" xmlns="http://www.w3.org/2000/svg" xmlns:xlink="http://www.w3.org/1999/xlink">
    <!-- Generator: Sketch 54.1 (76490) - https://sketchapp.com -->
    <title>Group 4</title>
    <desc>Created with Sketch.</desc>
    <defs>
        <circle id="path-1" cx="21.5" cy="21.5" r="21.5"></circle>
    </defs>
    <g id="Mobile-Final-Designs" stroke="none" stroke-width="1" fill="none" fill-rule="evenodd">
        <g id="2c---Fan-Zone-Instagram" transform="translate(-18.000000, -69.000000)">
            <g id="Group-4" transform="translate(18.000000, 69.000000)">
                <g id="fan">
                    <mask id="mask-2" fill="white">
                        <use xlink:href="#path-1"></use>
                    </mask>
                    <use id="Mask" fill="#FFFFFF" xlink:href="#path-1"></use>
                    <g mask="url(#mask-2)">
                        <g transform="translate(0.000000, 8.000000)">
                            <polygon id="Path" fill="#013DA2" fill-rule="nonzero" points="5.10778607 10.9136091 0 11.7 0.729729848 8.4831046 0 5.40922093 5.10778607 4.62283006 5.92857066 4.5 6.27083333 8.382196 5.10778607 8.5544365"></polygon>
                            <path d="M27.0533207,16.2 C26.911896,16.2 26.7739592,16.1558621 26.6563168,16.0738916 L24.5067241,14.5738654 C24.1772615,14.3442153 24.0884747,13.8786098 24.307905,13.5341347 C24.3605429,13.4515005 24.4277672,13.3808135 24.5067241,13.3260559 L26.6563168,11.8260297 C26.9857793,11.5963796 27.4306647,11.6893016 27.6504122,12.0337766 C27.8698424,12.3785836 27.7810556,12.8441891 27.4519102,13.074171 L26.1933568,13.9499606 L27.4490563,14.8260822 C27.7782018,15.0557322 27.8669886,15.5213377 27.6475583,15.8661446 C27.5150123,16.0738916 27.2920939,16.1993362 27.0533207,16.2 L27.0533207,16.2 Z" id="Path" fill="#013DA2" fill-rule="nonzero"></path>
                            <path d="M21.9479167,25.2 C21.2058813,25.2 20.6041667,24.495044 20.6041667,23.6249129 L20.6041667,18.9 L23.2916667,18.9 L23.2916667,23.6249129 C23.2916667,24.495044 22.6899521,25.2 21.9479167,25.2 Z" id="Path" fill="#F6BB92" fill-rule="nonzero"></path>
                            <path d="M20.6041667,21.1006195 C21.4309296,21.7664602 22.4649037,21.7664602 23.2916667,21.1006195 L23.2916667,19.8 L20.6041667,19.8 L20.6041667,21.1006195 Z" id="Path" fill="#EEB58E" fill-rule="nonzero"></path>
                            <polygon id="Path" fill="#013DA2" fill-rule="nonzero" points="26.875 36 16.125 36 16.125 25.3894031 17.6608114 21.6 26.1070943 21.6 26.875 25.3894031"></polygon>
                            <path d="M24.1875,30.1498341 C24.1875,31.3927354 23.1846423,32.4 21.9479167,32.4 C20.711191,32.4 19.7083333,31.3927354 19.7083333,30.1498341 C19.7083333,28.9072646 20.711191,27.9 21.9479167,27.9 C23.1846423,27.9 24.1875,28.9072646 24.1875,30.1498341 Z" id="Path" fill="#FFC72C" fill-rule="nonzero"></path>
                            <path d="M37.625,9 L26.0552954,7.32669367 C23.0324863,6.88901207 19.9675137,6.88901207 16.9447046,7.32669367 L5.375,9 L5.37500007,4.71712035 C5.37467567,3.16149261 6.45795713,1.84466281 7.91098124,1.63476837 L16.9447046,0.3282612 C19.9675137,-0.1094204 23.0324863,-0.1094204 26.0552954,0.3282612 L35.0890188,1.63476837 C36.5420429,1.84466281 37.6253243,3.16149261 37.6249999,4.71712035 L37.625,9 Z" id="Path" fill="#013DA2" fill-rule="nonzero"></path>
                            <polygon id="Path" fill="#013DA2" fill-rule="nonzero" points="37.9112978 11.0031519 43 11.7 42.2729966 8.84939802 43 6.12552367 37.9112978 5.42867559 37.7359806 5.4 37.625 8.87560689 37.9112978 8.90859928"></polygon>
                            <g id="Group" stroke-width="1" fill="none" fill-rule="evenodd" transform="translate(13.437500, 2.700000)">
                                <path d="M2.84861288,2.4007812 L2.71717307,0.6421875 L5.15764756,0.3730469 L5.28908737,2.1324219 L2.84861288,2.4007812 Z M13.275423,2.4007812 L10.8388049,2.1359375 L10.9712089,0.3765625 L13.4078269,0.6464844 L13.275423,2.4007812 Z M9.21492841,1.9515625 L8.0625,1.8207031 L6.91007159,1.9476562 L6.7786317,0.1894531 L7.99726212,0.0550781 C8.04064692,0.05 8.08435308,0.05 8.12773788,0.0550781 L9.3463683,0.1894531 L9.21492841,1.9515625 Z" id="Shape" fill="#FFC72C" fill-rule="nonzero"></path>
                                <polygon id="Path" fill="#FFC72C" fill-rule="nonzero" points="0.00803419898 0.9414062 1.09297521 0.821875 1.22409367 2.5800781 0.139152662 2.6996094"></polygon>
                                <polygon id="Path" fill="#FFC72C" fill-rule="nonzero" points="14.9002636 2.5800781 15.0317034 0.821875 16.1166445 0.9417969 15.9852046 2.7"></polygon>
                            </g>
                            <path d="M33.4568265,6.33731471 C32.4586109,6.13126767 31.4879102,6.79926948 31.2882671,7.82950471 C31.2844278,7.84931701 31.2809085,7.86945941 31.277709,7.88927162 L30.8675448,10.4295279 L29.4217319,17.891799 L25.0833333,22.3690295 L26.5294662,26.1 L32.3136776,20.1302492 L34.482877,11.175788 L34.9122376,8.5146772 C35.0754074,7.50260319 34.4316864,6.53906913 33.4568265,6.33731471 L33.4568265,6.33731471 Z" id="Path" fill="#F6BB92" fill-rule="nonzero"></path>
                            <polygon id="Path" fill="#FFC72C" fill-rule="nonzero" points="25.0833333 22.2594982 26.468232 26.1 29.5625 22.6673752 27.3003967 19.8"></polygon>
                            <path d="M21.9477432,19.8 C20.2162316,19.8 18.8125,18.5464428 18.8125,17.0001721 L18.8125,13.5 L24.2994358,13.5 L25.0833333,14.2000344 L25.0833333,17.0001721 C25.0829865,18.5464428 23.6792549,19.8 21.9477432,19.8 Z" id="Path" fill="#F6BB92" fill-rule="nonzero"></path>
                            <path d="M25.0833333,13.5 L18.8125,13.5 L18.8125,12.0002212 C18.8125,10.34313 20.2163092,9 21.9479167,9 C23.6795241,9 25.0833333,10.34313 25.0833333,12.0002212 L25.0833333,13.5 Z" id="Path" fill="#744630" fill-rule="nonzero"></path>
                            <polygon id="Path" fill="#013DA2" fill-rule="nonzero" points="18.8125 12.6 25.0833333 12.6 25.0833333 14.4 18.8125 14.4"></polygon>
                            <path d="M13.578316,17.8904702 L12.1325191,10.4269911 L11.7223594,7.88929586 C11.555352,6.8532795 10.6057779,6.15346478 9.60213443,6.32618924 C8.59849093,6.4989137 7.92054363,7.47878632 8.0878709,8.51480276 L8.5172268,11.173372 L10.6864022,20.1292828 L16.4705498,26.1 L17.9166667,22.3684255 L13.578316,17.8904702 Z" id="Path" fill="#F6BB92" fill-rule="nonzero"></path>
                            <polygon id="Path" fill="#FFC72C" fill-rule="nonzero" points="17.9166667 22.3501343 15.1754773 19.8 12.5416667 22.5997049 16.3042023 26.1"></polygon>
                        </g>
                    </g>
                </g>
            </g>
        </g>
    </g>
</svg>