<?xml version="1.0" encoding="UTF-8"?>
<svg width="88px" height="35px" viewBox="0 0 88 35" version="1.1" xmlns="http://www.w3.org/2000/svg" xmlns:xlink="http://www.w3.org/1999/xlink">
    <!-- Generator: Sketch 54.1 (76490) - https://sketchapp.com -->
    <title>Group 5</title>
    <desc>Created with Sketch.</desc>
    <g id="Mobile-Final-Designs" stroke="none" stroke-width="1" fill="none" fill-rule="evenodd">
        <g id="4d---Terrace-Design" transform="translate(-119.000000, -134.000000)">
            <g id="Group-5" transform="translate(119.000000, 134.000000)">
                <rect id="Rectangle-Copy-9" fill="#2E2F7F" x="0" y="0" width="88" height="35"></rect>
                <g id="85ee58b" transform="translate(9.000000, 6.000000)" fill-rule="nonzero">
                    <path d="M8.94035868,9.31362919 L6.01275674,9.31362919 C5.62256987,9.31362919 5.33599032,9.19780027 5.15282985,8.96478449 C4.96783353,8.73181901 4.8760415,8.48064679 4.8760415,8.21036255 C4.8760415,7.94063157 4.96783353,7.68945935 5.15282985,7.45644356 C5.33599032,7.22342778 5.62256987,7.10629118 6.01275674,7.10629118 L10.9025435,7.10629118 C12.6921121,7.10629118 13.6103152,6.08917952 13.6563054,4.05259235 L13.6563054,3.94244675 C13.6563054,3.93268956 13.6553639,3.92368679 13.6553639,3.9139799 L13.6553639,1.00241415 L11.0052094,1.00241415 C10.9820495,1.00206208 10.9605373,1 10.9370008,1 L6.39188149,1 C2.5630227,1 0.431987572,2.84355575 0,6.53142168 C0.235364264,6.634526 1.78909792,7.32728651 2.16817561,7.80865801 C2.59437322,7.78391299 2.87280915,8.08185934 2.95801101,8.2390306 C3.1210243,8.2719234 3.0976291,8.43774533 3.0976291,8.43774533 C3.0976291,8.43774533 3.0279142,8.89261145 2.89615728,9.01683961 C2.98159451,9.16556132 2.8650892,9.23184987 2.8650892,9.23184987 C2.8650892,9.23184987 2.81090835,9.49665196 3.12846181,9.76140378 C3.4383424,9.91037695 3.63962593,9.8440884 4.01159559,10.3239511 C4.23585068,10.3902396 4.33653952,10.50632 4.33653952,10.50632 C4.33653952,10.50632 4.37542169,10.7708706 4.63098019,10.9529881 C4.87896002,11.3004245 4.76273714,11.4162534 5.0802906,11.9626561 C5.35105363,12.0948308 5.41309565,12.2687502 5.28152702,12.4919585 C5.18869938,12.5746432 4.70069509,13.5927104 3.94931823,13.5014254 C3.6418854,13.7153292 3.09037988,13.8025906 2.68451774,13.984004 C3.57000516,14.4509912 4.66779117,14.6847614 5.97834649,14.6847614 L8.90458331,14.6847614 C9.29571166,14.6847614 9.58219705,14.8019482 9.76587531,15.0354167 C9.94903579,15.2683822 10.0408749,15.5191017 10.0408749,15.7893357 C10.0408749,16.0596199 9.94903579,16.3102892 9.76587531,16.5433049 C9.58219705,16.7767734 9.29571166,16.892552 8.90458331,16.892552 L2.98272426,16.892552 C1.19268488,16.892552 0.273210839,17.9108204 0.228585775,19.9460497 L0.228585775,19.9690344 L0.225055311,19.9690344 L0.225055311,22.992154 L2.72405893,22.992154 C2.79805746,22.9956746 2.87134989,23 2.94873766,23 L8.59559711,23 C12.8643046,23 15,20.6586264 15,15.973314 C15,11.5345468 12.979539,9.31362919 8.94035868,9.31362919" id="Path" fill="#0DBFBA"></path>
                    <g id="Group" transform="translate(20.000000, -0.000000)">
                        <path d="M4.71443227,7.14835011 C4.72438399,7.78686184 4.56018302,8.33176156 4.22182446,8.78306563 C3.99956932,9.09062101 3.68609475,9.30624085 3.28139136,9.42993159 C3.06245346,9.50013446 2.80868834,9.53523535 2.52008838,9.53523535 C1.98269535,9.53523535 1.53819173,9.40151765 1.18656419,9.13407819 C0.894646989,8.91344062 0.662443608,8.61508297 0.489947079,8.23899621 C0.31745055,7.86290946 0.217934817,7.42916262 0.191396888,6.93774259 L1.49009022,6.84748222 C1.54980055,7.37901816 1.69078118,7.76345662 1.91303632,8.00080914 C2.07558113,8.18133075 2.26300243,8.26657581 2.47530585,8.25654684 C2.77385753,8.24651787 3.01269529,8.09942836 3.19182631,7.81527394 C3.28470905,7.67152522 3.33114973,7.46927716 3.33114973,7.20852368 C3.33114973,6.82407949 3.16031438,6.44465544 2.81863857,6.07024018 C2.54662481,5.81282972 2.14026889,5.42671977 1.59955862,4.91189881 C1.14509662,4.47062371 0.824987665,4.07448493 0.639222176,3.72347064 C0.436870478,3.32899745 0.335696147,2.90110074 0.335696147,2.43976767 C0.335696147,1.60736235 0.612681612,0.977217571 1.16666085,0.549314437 C1.50833666,0.291903956 1.93293713,0.163200645 2.44047499,0.163200645 C2.92810941,0.163200645 3.3460755,0.27351777 3.69438579,0.494155323 C3.9630823,0.66464798 4.18035835,0.902832675 4.34622036,1.20871656 C4.51208241,1.51460044 4.61325676,1.8664452 4.6497464,2.2642614 L3.33612556,2.50495571 C3.29963591,2.13054046 3.1934858,1.83970442 3.01767203,1.63243884 C2.89161687,1.47866114 2.71082995,1.40177345 2.47530585,1.40177345 C2.22651278,1.40177345 2.03577429,1.51376205 1.90308465,1.7377426 C1.79693294,1.91826423 1.74385788,2.14224142 1.74385788,2.40968088 C1.74385788,2.82755503 1.92298621,3.25378028 2.28124822,3.68836939 C2.4172551,3.85217609 2.61960376,4.04606678 2.88830028,4.27004733 C3.20675541,4.53748676 3.41739705,4.72469158 3.52023151,4.83166737 C3.85527284,5.1726527 4.11567237,5.50861848 4.30143784,5.8395748 C4.38768612,5.99335249 4.45734712,6.13709905 4.51042299,6.27081876 C4.6397954,6.59508913 4.70779781,6.88759666 4.71443227,7.14835011 L4.71443227,7.14835011 Z M7.01824457,9.41990266 L5.6548654,9.41990266 L5.6548654,0.273518873 L7.01824457,0.273518873 L7.01824457,9.41990266 Z M11.6905551,9.41990266 L7.96365353,9.41990266 L7.96365353,0.273518873 L9.32703273,0.273518873 L9.32703273,8.05095377 L11.6905551,8.05095377 L11.6905551,9.41990266 Z M13.4583197,9.41990266 L11.8411729,0.273518873 L13.2742138,0.273518873 L14.4087045,7.39405888 L15.5581228,0.273518873 L16.9911637,0.273518873 L15.3441618,9.41990266 L13.4583197,9.41990266 Z M17.9365726,9.41990266 L17.9365726,0.273518873 L21.8276768,0.273518873 L21.8276768,1.65249669 L19.2999518,1.65249669 L19.2999518,4.15471464 L21.1459872,4.15471464 L21.1459872,5.53870691 L19.2999518,5.53870691 L19.2999518,8.04092484 L21.8276768,8.04092484 L21.8276768,9.41990266 L17.9365726,9.41990266 Z M24.9276229,0.273518873 C25.6905883,0.273518873 26.249535,0.485795759 26.6044798,0.910355903 C26.9196177,1.28142815 27.0771843,1.79624139 27.0771843,2.45481106 L27.0771843,3.78364425 C27.0771843,4.43218492 26.8333707,4.97875613 26.3457363,5.42337422 L27.360807,9.41990266 L25.8829835,9.41990266 L25.047043,5.96493642 C25.0072361,5.96827941 24.9657712,5.96995087 24.9226471,5.96995087 L24.1364649,5.96995087 L24.1364649,9.41990266 L22.7730857,9.41990266 L22.7730857,0.273518873 L24.9276229,0.273518873 Z M25.7436601,2.47988339 C25.7436601,1.94834746 25.4832606,1.68258348 24.9624538,1.68258348 L24.1364649,1.68258348 L24.1364649,4.60601648 L24.9624538,4.60601648 C25.1813917,4.60601648 25.3663251,4.52829304 25.5172595,4.37284385 C25.668194,4.21739466 25.7436601,4.03102559 25.7436601,3.81373102 L25.7436601,2.47988339 Z M28.3012401,9.41990266 L28.3012401,0.273518873 L30.3463089,0.273518873 C30.8870191,0.273518873 31.3746463,0.417265427 31.8092048,0.704762845 C32.1807358,0.948801354 32.4461111,1.32488245 32.6053386,1.83301743 C32.6915869,2.10714287 32.7347104,2.43140835 32.7347104,2.8058236 C32.7347104,3.41759136 32.5738266,3.909004 32.2520542,4.28007623 C32.1160474,4.43385392 31.9568222,4.55252842 31.774374,4.63610324 C32.0762429,4.75310801 32.3333252,4.98377108 32.5456286,5.32809939 C32.68827,5.56210892 32.7927615,5.86297382 32.8591063,6.23070306 C32.8922787,6.42125368 32.9088647,6.63353056 32.9088647,6.86754009 C32.9088647,7.44587793 32.801056,7.93729056 32.5854353,8.34179273 C32.416256,8.65603409 32.1774182,8.90842631 31.8689149,9.09897693 C31.5206045,9.31292849 31.1756167,9.41990266 30.8339409,9.41990266 L28.3012401,9.41990266 Z M29.7740877,8.05596826 L30.3463089,8.05596826 C30.8107226,8.05596826 31.1324901,7.81527636 31.3116212,7.3338853 C31.3746487,7.17007864 31.4061621,6.98120237 31.4061621,6.76725078 C31.4061621,6.25577282 31.3083049,5.88303468 31.1125877,5.64902515 C30.9400912,5.43507356 30.6846674,5.32809939 30.3463089,5.32809939 L29.7740877,5.32809939 L29.7740877,8.05596826 Z M29.7740877,4.00929515 L30.3463089,4.00929515 C30.7709157,4.00929515 31.0561941,3.80036122 31.2021528,3.38248705 C31.2552286,3.22536637 31.2817662,3.03314714 31.2817662,2.8058236 C31.2817662,2.42472237 31.1905434,2.13722926 31.0080951,1.94333565 C30.8389158,1.76281402 30.6183226,1.67255455 30.3463089,1.67255455 L29.7740877,1.67255455 L29.7740877,4.00929515 Z M35.6107439,7.31884192 L35.2773628,9.41990266 L33.8542736,9.41990266 L35.3918071,0.273518873 L37.2776493,0.273518873 L38.7952791,9.41990266 L37.3622385,9.41990266 L37.038809,7.31884192 L35.6107439,7.31884192 Z M36.3272644,2.36956516 L35.819729,5.97496536 L36.8347996,5.97496536 L36.3272644,2.36956516 Z M41.9101529,9.53523535 C41.3064151,9.53523535 40.793909,9.32295847 40.3726194,8.89839832 C39.9513299,8.47383821 39.7406881,7.95902493 39.7406881,7.35394317 L39.7406881,2.34449284 C39.7406881,1.73941106 39.9529885,1.22376208 40.3775953,0.797530443 C40.8022022,0.371298804 41.3130496,0.158186182 41.9101529,0.158186182 C42.5138906,0.158186182 43.0255676,0.372134541 43.4451986,0.800037678 C43.8648295,1.22794081 44.0746417,1.74275405 44.0746417,2.34449284 L44.0746417,3.38750152 L42.6565284,3.38750152 L42.6565284,2.31942051 C42.6565284,2.09878296 42.5794036,1.91074241 42.4251522,1.75529322 C42.2709004,1.59984404 42.0843083,1.52212061 41.8653705,1.52212061 C41.6497496,1.52212061 41.4656457,1.59984404 41.3130525,1.75529322 C41.1604594,1.91074241 41.084164,2.09878296 41.084164,2.31942051 L41.084164,7.33889979 C41.084164,7.55953732 41.1604594,7.74674214 41.3130525,7.90051983 C41.4656457,8.05429752 41.6497496,8.13118521 41.8653705,8.13118521 C42.0843083,8.13118521 42.2709004,8.05429752 42.4251522,7.90051983 C42.5794036,7.74674214 42.6565284,7.55953732 42.6565284,7.33889979 L42.6565284,6.08026911 L44.0746417,6.08026911 L44.0746417,7.35394317 C44.0746417,7.96236796 43.8623417,8.47801691 43.4377349,8.90090556 C43.0131281,9.32379421 42.5039392,9.53523535 41.9101529,9.53523535 L41.9101529,9.53523535 Z M46.3884058,6.53157095 L46.3884058,9.41990266 L45.0150748,9.41990266 L45.0150748,0.273518873 L46.3884058,0.273518873 L46.3884058,3.53292099 L48.0503353,0.273518873 L49.5132313,0.273518873 L47.6423165,4.01430963 L49.8316845,9.41990266 L48.2244896,9.41990266 L46.7914486,5.71421317 L46.3884058,6.53157095 Z" id="Shape" fill="#0DBFBA"></path>
                        <path d="M5.8242473,12.5308585 L7.25987644,12.5308585 L5.83920176,21.682136 L4.52320842,21.682136 L3.75056079,16.690074 L3.02277656,21.682136 L1.71176802,21.682136 L0.191396888,12.5308585 L1.62702602,12.5308585 L2.34484059,17.4326119 L3.00283727,12.5308585 L4.4384664,12.5308585 L5.15628097,17.4326119 L5.8242473,12.5308585 Z M8.20200806,21.682136 L8.20200806,12.5308585 L12.1001399,12.5308585 L12.1001399,13.9105741 L9.56784964,13.9105741 L9.56784964,16.4141309 L11.4172191,16.4141309 L11.4172191,17.7988637 L9.56784964,17.7988637 L9.56784964,20.3024204 L12.1001399,20.3024204 L12.1001399,21.682136 L8.20200806,21.682136 Z M13.0472564,21.682136 L13.0472564,12.5308585 L15.0960188,12.5308585 C15.6377056,12.5308585 16.1262134,12.674682 16.5615568,12.9623332 C16.9337588,13.2065023 17.1996135,13.5827846 17.3591286,14.0911915 C17.4455326,14.3654636 17.488734,14.6899026 17.488734,15.0645181 C17.488734,15.6766132 17.3275596,16.1682888 17.0052061,16.5395596 C16.8689536,16.6934196 16.7094409,16.8121575 16.5266631,16.8957771 C16.8290772,17.0128445 17.0866238,17.2436309 17.2993107,17.5881435 C17.4422097,17.8222782 17.5468899,18.123304 17.6133546,18.4912301 C17.6465869,18.6818826 17.6632028,18.8942731 17.6632028,19.1284078 C17.6632028,19.7070551 17.5551994,20.1987307 17.3391893,20.6034493 C17.1697045,20.9178588 16.9304353,21.170386 16.6213747,21.3610386 C16.2724354,21.5751046 15.9268244,21.682136 15.5845315,21.682136 L13.0472564,21.682136 Z M14.5227641,20.3174718 L15.0960188,20.3174718 C15.5612713,20.3174718 15.88362,20.0766512 16.0630745,19.5950026 C16.1262159,19.4311083 16.1577862,19.2421309 16.1577862,19.0280649 C16.1577862,18.5163132 16.0597523,18.1433757 15.8636816,17.9092409 C15.6908735,17.6951749 15.4349885,17.5881435 15.0960188,17.5881435 L14.5227641,17.5881435 L14.5227641,20.3174718 Z M14.5227641,16.2686336 L15.0960188,16.2686336 C15.5213925,16.2686336 15.8071862,16.0595879 15.9534084,15.6414901 C16.0065801,15.4842854 16.0331656,15.2919633 16.0331656,15.0645181 C16.0331656,14.683213 15.9417781,14.3955661 15.7590003,14.2015687 C15.5895154,14.0209505 15.3685238,13.9306428 15.0960188,13.9306428 L14.5227641,13.9306428 L14.5227641,16.2686336 Z M21.3120935,19.5799511 L20.9781104,21.682136 L19.5524509,21.682136 L21.0927613,12.5308585 L22.9820094,12.5308585 L24.5023805,21.682136 L23.0667514,21.682136 L22.7427378,19.5799511 L21.3120935,19.5799511 Z M22.0299081,14.6280263 L21.5214561,18.2353555 L22.5383601,18.2353555 L22.0299081,14.6280263 Z M27.6079254,12.5308585 C28.2758951,12.5308585 28.8076043,12.743249 29.2030689,13.1680363 C29.5719477,13.5727549 29.7563843,14.0878436 29.7563843,14.7133178 L29.7563843,16.042862 C29.7563843,16.6449227 29.5470238,17.1600114 29.1282966,17.5881435 C28.7095693,18.0162756 28.202784,18.2303384 27.6079254,18.2303384 L26.8153385,18.2303384 L26.8153385,21.682136 L25.4494969,21.682136 L25.4494969,12.5308585 L27.6079254,12.5308585 Z M28.4254365,14.7384035 C28.4254365,14.4975792 28.3548188,14.304421 28.2135815,14.158923 C28.0723441,14.013425 27.8820919,13.940677 27.6428192,13.940677 L26.8153385,13.940677 L26.8153385,16.8656742 L27.6428192,16.8656742 C27.8621525,16.8656742 28.04742,16.7879092 28.198627,16.6323768 C28.3498341,16.4768445 28.4254365,16.2903757 28.4254365,16.0729649 L28.4254365,14.7384035 Z M32.8569445,12.5308585 C33.5249141,12.5308585 34.0566233,12.743249 34.4520879,13.1680363 C34.8209667,13.5727549 35.0054033,14.0878436 35.0054033,14.7133178 L35.0054033,16.042862 C35.0054033,16.6449227 34.7960428,17.1600114 34.3773156,17.5881435 C33.9585883,18.0162756 33.451803,18.2303384 32.8569445,18.2303384 L32.0643576,18.2303384 L32.0643576,21.682136 L30.6985159,21.682136 L30.6985159,12.5308585 L32.8569445,12.5308585 Z M33.6744555,14.7384035 C33.6744555,14.4975792 33.6038379,14.304421 33.4626005,14.158923 C33.3213631,14.013425 33.1311109,13.940677 32.8918382,13.940677 L32.0643576,13.940677 L32.0643576,16.8656742 L32.8918382,16.8656742 C33.1111715,16.8656742 33.296439,16.7879092 33.447646,16.6323768 C33.5988531,16.4768445 33.6744555,16.2903757 33.6744555,16.0729649 L33.6744555,14.7384035 Z M40.4787396,19.4093681 C40.488709,20.0482215 40.3242115,20.5934127 39.9852417,21.0449583 C39.7625853,21.3526782 39.4485446,21.5684134 39.0431104,21.6921703 C38.823777,21.7624107 38.5695536,21.7975304 38.2804324,21.7975304 C37.7420687,21.7975304 37.2967622,21.6637412 36.9444996,21.3961586 C36.652055,21.175403 36.4194324,20.8768857 36.2466245,20.5005978 C36.0738162,20.1243098 35.9741209,19.6903308 35.947535,19.1986479 L37.2485737,19.1083392 C37.3083921,19.6401596 37.4496273,20.0248037 37.6722838,20.2622832 C37.8351223,20.4429015 38.022882,20.5281921 38.2355687,20.5181578 C38.5346597,20.5081234 38.7739288,20.3609552 38.9533835,20.0766488 C39.0464338,19.9328231 39.0929586,19.7304669 39.0929586,19.4695739 C39.0929586,19.084924 38.9218147,18.7052969 38.5795216,18.3306813 C38.3070165,18.0731331 37.899927,17.6868166 37.3582399,17.1717202 C36.9029572,16.730209 36.5822701,16.3338583 36.3961691,15.9826562 C36.1934518,15.5879719 36.092095,15.1598463 36.092095,14.6982664 C36.092095,13.8654156 36.3695806,13.2349337 36.9245604,12.8068016 C37.2668532,12.5492535 37.6922205,12.4204812 38.2006752,12.4204812 C38.6891903,12.4204812 39.1079112,12.5308574 39.4568507,12.751613 C39.7260324,12.9221969 39.9437007,13.160509 40.1098626,13.4665566 C40.2760241,13.7726041 40.3773813,14.1246371 40.4139367,14.5226662 L39.0979432,14.7634893 C39.0613878,14.3888737 38.955046,14.097882 38.7789147,13.8905056 C38.6526317,13.7366456 38.4715183,13.6597168 38.2355687,13.6597168 C37.9863266,13.6597168 37.7952435,13.7717653 37.662314,13.9958657 C37.5559709,14.1764839 37.5028,14.4005809 37.5028,14.6681635 C37.5028,15.0862612 37.6822518,15.5127145 38.0411608,15.9475361 C38.1774133,16.1114304 38.3801273,16.3054249 38.6493094,16.5295253 C38.9683396,16.7971078 39.1793615,16.9844128 39.2823817,17.0914458 C39.6180281,17.4326136 39.8788982,17.7687591 40.0649989,18.0998925 C40.1514032,18.2537525 40.2211899,18.397576 40.2743615,18.5313673 C40.4039676,18.8558111 40.4720928,19.1484751 40.4787396,19.4093681 L40.4787396,19.4093681 Z" id="Shape" fill="#FFFFFF"></path>
                    </g>
                </g>
            </g>
        </g>
    </g>
</svg>