<?xml version="1.0" encoding="UTF-8"?>
<svg width="97px" height="35px" viewBox="0 0 97 35" version="1.1" xmlns="http://www.w3.org/2000/svg" xmlns:xlink="http://www.w3.org/1999/xlink">
    <!-- Generator: Sketch 54.1 (76490) - https://sketchapp.com -->
    <title>Group 10</title>
    <desc>Created with Sketch.</desc>
    <g id="Mobile-Final-Designs" stroke="none" stroke-width="1" fill="none" fill-rule="evenodd">
        <g id="4d---Terrace-Design" transform="translate(-208.000000, -134.000000)">
            <g id="Group-10" transform="translate(208.000000, 134.000000)">
                <rect id="Rectangle" fill="#FFFFFF" x="0" y="0" width="97" height="35"></rect>
                <g id="#DONSHUB" transform="translate(9.000000, 9.000000)" fill-rule="nonzero">
                    <path d="M10.1953125,6.95214844 L9.68554688,10.0019531 L12.1816406,10.0019531 L11.8125,12.4277344 L9.29003906,12.4277344 L8.66601562,16.2246094 L6.24902344,16.2246094 L6.87304688,12.4277344 L4.79003906,12.4277344 L4.16601562,16.2246094 L1.74902344,16.2246094 L2.37304688,12.4277344 L0,12.4277344 L0.369140625,10.0019531 L2.76855469,10.0019531 L3.27832031,6.95214844 L0.905273438,6.95214844 L1.27441406,4.52636719 L3.67382812,4.52636719 L4.39453125,0.193359375 L6.81152344,0.193359375 L6.09082031,4.52636719 L8.17382812,4.52636719 L8.89453125,0.193359375 L11.3115234,0.193359375 L10.5908203,4.52636719 L13.0869141,4.52636719 L12.7177734,6.95214844 L10.1953125,6.95214844 Z M7.76953125,6.95214844 L5.6953125,6.95214844 L5.203125,10.0019531 L7.26855469,10.0019531 L7.76953125,6.95214844 Z" id="#" fill="#FFC72C"></path>
                    <path d="M22.3505859,12.3925781 C22.3505859,13.4472709 21.9785193,14.3496056 21.234375,15.0996094 C20.4902307,15.8496131 19.5966849,16.2246094 18.5537109,16.2246094 L14.7568359,16.2246094 L14.7568359,0.193359375 L18.5537109,0.193359375 C19.6084037,0.193359375 20.5048791,0.568355625 21.2431641,1.31835938 C21.981449,2.06836312 22.3505859,2.96776819 22.3505859,4.01660156 L22.3505859,12.3925781 Z M17.1650391,13.8339844 L18.6240234,13.8339844 C19.0107441,13.8339844 19.3359362,13.6948256 19.5996094,13.4165039 C19.8632826,13.1381822 19.9951172,12.8115253 19.9951172,12.4365234 L19.9951172,4.05175781 C19.9951172,3.67089653 19.8603529,3.34423964 19.5908203,3.07177734 C19.3212877,2.79931504 18.9990253,2.66308594 18.6240234,2.66308594 L17.1650391,2.66308594 L17.1650391,13.8339844 Z M27.8261719,0 C28.8925835,0 29.7993127,0.37499625 30.5463867,1.125 C31.2934608,1.87500375 31.6669922,2.78026813 31.6669922,3.84082031 L31.6669922,12.5859375 C31.6669922,13.6523491 31.2919959,14.5590783 30.5419922,15.3061523 C29.7919884,16.0532264 28.8867241,16.4267578 27.8261719,16.4267578 C26.7656197,16.4267578 25.8647498,16.0517616 25.1235352,15.3017578 C24.3823205,14.5517541 24.0117188,13.6464897 24.0117188,12.5859375 L24.0117188,3.84082031 C24.0117188,2.77440873 24.386715,1.86767952 25.1367188,1.12060547 C25.8867225,0.373531421 26.7831979,0 27.8261719,0 Z M29.1445312,3.78808594 C29.1445312,3.40136525 29.0112318,3.07470836 28.7446289,2.80810547 C28.478026,2.54150257 28.1513691,2.40820312 27.7646484,2.40820312 C27.3837872,2.40820312 27.0571303,2.54150257 26.784668,2.80810547 C26.5122057,3.07470836 26.3759766,3.40136525 26.3759766,3.78808594 L26.3759766,12.5683594 C26.3759766,12.9492207 26.5122057,13.2744127 26.784668,13.5439453 C27.0571303,13.8134779 27.3837872,13.9482422 27.7646484,13.9482422 C28.1513691,13.9482422 28.478026,13.8134779 28.7446289,13.5439453 C29.0112318,13.2744127 29.1445312,12.9492207 29.1445312,12.5683594 L29.1445312,3.78808594 Z M36.0439453,0.193359375 L39.2431641,10.9599609 L39.2431641,0.193359375 L41.6601562,0.193359375 L41.6601562,16.2246094 L39.0673828,16.2246094 L35.7363281,5.95898438 L35.7363281,16.2246094 L33.328125,16.2246094 L33.328125,0.193359375 L36.0439453,0.193359375 Z M51.3105469,12.2431641 C51.3281251,13.3623103 51.0380889,14.3173789 50.4404297,15.1083984 C50.0478496,15.6474636 49.4941442,16.0253895 48.7792969,16.2421875 C48.3925762,16.365235 47.9443385,16.4267578 47.4345703,16.4267578 C46.4853468,16.4267578 45.7001984,16.1923852 45.0791016,15.7236328 C44.563474,15.3369121 44.1533218,14.8139681 43.8486328,14.1547852 C43.5439438,13.4956022 43.3681643,12.7353559 43.3212891,11.8740234 L45.6152344,11.7158203 C45.7207037,12.6474656 45.9697246,13.321287 46.3623047,13.7373047 C46.6494155,14.0537125 46.9804669,14.2031251 47.3554688,14.1855469 C47.8828151,14.1679687 48.3046859,13.9101587 48.6210938,13.4121094 C48.7851571,13.160155 48.8671875,12.8056663 48.8671875,12.3486328 C48.8671875,11.6748013 48.5654327,11.0097689 47.9619141,10.3535156 C47.4814429,9.90234149 46.7636767,9.22559045 45.8085938,8.32324219 C45.0058554,7.54980082 44.4404313,6.85547183 44.1123047,6.24023438 C43.754881,5.54882467 43.5761719,4.79883217 43.5761719,3.99023438 C43.5761719,2.53124271 44.0654248,1.42676156 45.0439453,0.676757812 C45.647464,0.225583682 46.3974565,0 47.2939453,0 C48.1552777,0 48.8935516,0.193357441 49.5087891,0.580078125 C49.9834008,0.878907744 50.367186,1.29638404 50.6601562,1.83251953 C50.9531265,2.36865502 51.1318356,2.98534808 51.1962891,3.68261719 L48.8759766,4.10449219 C48.8115231,3.44823891 48.624025,2.93847838 48.3134766,2.57519531 C48.0908192,2.30566271 47.7714865,2.17089844 47.3554688,2.17089844 C46.9160134,2.17089844 46.5791027,2.36718554 46.3447266,2.75976562 C46.1572256,3.07617346 46.0634766,3.46874766 46.0634766,3.9375 C46.0634766,4.66992554 46.3798796,5.41698838 47.0126953,6.17871094 C47.2529309,6.46582175 47.6103492,6.8056621 48.0849609,7.19824219 C48.6474637,7.66699453 49.0195303,7.99511625 49.2011719,8.18261719 C49.7929717,8.78027643 50.252928,9.36913772 50.5810547,9.94921875 C50.7333992,10.2187513 50.8564448,10.470702 50.9501953,10.7050781 C51.1787121,11.2734403 51.2988281,11.7861305 51.3105469,12.2431641 Z M55.3974609,9.43945312 L55.3974609,16.2246094 L52.9716797,16.2246094 L52.9716797,0.193359375 L55.3974609,0.193359375 L55.3974609,7.00488281 L58.2890625,7.00488281 L58.2890625,0.193359375 L60.7148438,0.193359375 L60.7148438,16.2246094 L58.2890625,16.2246094 L58.2890625,9.43945312 L55.3974609,9.43945312 Z M66.1992188,16.4267578 C65.1386666,16.4267578 64.2377967,16.056156 63.496582,15.3149414 C62.7553674,14.5737268 62.3847656,13.6757865 62.3847656,12.6210938 L62.3847656,0.193359375 L64.7490234,0.193359375 L64.7490234,12.5947266 C64.7490234,12.9755878 64.8852525,13.3007799 65.1577148,13.5703125 C65.4301771,13.8398451 65.756834,13.9746094 66.1376953,13.9746094 C66.524416,13.9746094 66.8510729,13.8398451 67.1176758,13.5703125 C67.3842787,13.3007799 67.5175781,12.9755878 67.5175781,12.5947266 L67.5175781,0.193359375 L70.0400391,0.193359375 L70.0400391,12.6210938 C70.0400391,13.6933647 69.6650428,14.5956995 68.9150391,15.328125 C68.1650353,16.0605505 67.2597709,16.4267578 66.1992188,16.4267578 Z M71.7011719,16.2246094 L71.7011719,0.193359375 L75.3134766,0.193359375 C76.2685595,0.193359375 77.129879,0.44530998 77.8974609,0.94921875 C78.5537142,1.37695526 79.0224595,2.03612836 79.3037109,2.92675781 C79.4560554,3.40722896 79.5322266,3.97558266 79.5322266,4.63183594 C79.5322266,5.70410692 79.2480497,6.56542644 78.6796875,7.21582031 C78.4394519,7.48535291 78.1582047,7.69335864 77.8359375,7.83984375 C78.3691433,8.0449229 78.8232403,8.44921573 79.1982422,9.05273438 C79.4501966,9.46289268 79.634765,9.99023115 79.7519531,10.6347656 C79.8105472,10.9687517 79.8398438,11.3408183 79.8398438,11.7509766 C79.8398438,12.7646535 79.649416,13.625973 79.2685547,14.3349609 C78.9697251,14.8857449 78.5478543,15.3281233 78.0029297,15.6621094 C77.3876922,16.0371113 76.7783233,16.2246094 76.1748047,16.2246094 L71.7011719,16.2246094 Z M74.3027344,13.8339844 L75.3134766,13.8339844 C76.1337932,13.8339844 76.7021469,13.4121136 77.0185547,12.5683594 C77.1298834,12.2812486 77.1855469,11.9501972 77.1855469,11.5751953 C77.1855469,10.6787065 77.012697,10.0253927 76.6669922,9.61523438 C76.3623032,9.2402325 75.9111358,9.05273438 75.3134766,9.05273438 L74.3027344,9.05273438 L74.3027344,13.8339844 Z M74.3027344,6.74121094 L75.3134766,6.74121094 C76.0634803,6.74121094 76.5673815,6.37500366 76.8251953,5.64257812 C76.9189458,5.36718612 76.9658203,5.03027543 76.9658203,4.63183594 C76.9658203,3.96386385 76.8046891,3.45996264 76.4824219,3.12011719 C76.1835923,2.80370936 75.7939477,2.64550781 75.3134766,2.64550781 L74.3027344,2.64550781 L74.3027344,6.74121094 Z" id="DONSHUB" fill="#013DA2"></path>
                </g>
            </g>
        </g>
    </g>
</svg>