<?xml version="1.0" encoding="UTF-8"?>
<svg width="118px" height="35px" viewBox="0 0 118 35" version="1.1" xmlns="http://www.w3.org/2000/svg" xmlns:xlink="http://www.w3.org/1999/xlink">
    <!-- Generator: Sketch 54.1 (76490) - https://sketchapp.com -->
    <title>Group 9</title>
    <desc>Created with Sketch.</desc>
    <g id="Mobile-Final-Designs" stroke="none" stroke-width="1" fill="none" fill-rule="evenodd">
        <g id="4d---Terrace-Design" transform="translate(0.000000, -134.000000)">
            <g id="Group-9" transform="translate(-2.000000, 134.000000)">
                <rect id="Rectangle" fill="#013DA2" x="0" y="0" width="120" height="35"></rect>
                <g id="iPloughLane" transform="translate(10.000000, 10.000000)" fill-rule="nonzero">
                    <path d="M-1.234568e-13,2.36925 L-1.234568e-13,0.386648437 L2.237625,0.386648437 L2.237625,2.36925 L-1.234568e-13,2.36925 Z M-1.234568e-13,12.4632422 L-1.234568e-13,3.62791406 L2.237625,3.62791406 L2.237625,12.4632422 L-1.234568e-13,12.4632422 Z" id="i" fill="#FFC72C"></path>
                    <path d="M7.56021094,6.49075781 L10.0281797,6.49075781 C10.6204951,6.49075781 11.0222216,6.32211497 11.2333711,5.98482422 C11.4445206,5.64753347 11.5500937,5.09224605 11.5500937,4.31894531 C11.5500937,3.21109602 11.3060415,2.51458736 10.8179297,2.22939844 C10.6259756,2.11971039 10.3901498,2.06212503 10.1104453,2.05664062 L7.56021094,2.05664062 L7.56021094,6.49075781 Z M5.11692187,12.4632422 L5.11692187,0.320835937 L9.88010156,0.320835937 C11.234749,0.320835937 12.2328952,0.627957866 12.8745703,1.24221094 C13.5162454,1.85646401 13.8370781,2.85735244 13.8370781,4.24490625 C13.8370781,5.63246006 13.5285851,6.65117253 12.9115898,7.30107422 C12.2945946,7.95097591 11.2045859,8.27592187 9.64153125,8.27592187 L7.56021094,8.27592187 L7.56021094,12.4632422 L5.11692187,12.4632422 Z M18.8799609,12.5619609 C17.8653465,12.5619609 17.1139946,12.3316195 16.6258828,11.8709297 C16.137771,11.4102399 15.8937187,10.6396929 15.8937187,9.55926562 L15.8937187,-1.59872116e-14 L18.1313437,-1.59872116e-14 L18.1313437,9.52635937 C18.1313437,10.0199556 18.2465145,10.3723232 18.4768594,10.5834727 C18.7072043,10.7946221 19.1185283,10.9001953 19.7108437,10.9001953 L19.9905469,10.9001953 L19.8177891,12.5619609 L18.8799609,12.5619609 Z M25.2226406,12.6524531 C22.6669091,12.6524531 21.3890625,11.6981814 21.3890625,9.78960937 L21.3890625,6.30977344 C21.3890625,5.40484704 21.7249771,4.7001119 22.3968164,4.19554687 C23.0686557,3.69098185 24.0092166,3.43870312 25.2185273,3.43870312 C26.4278381,3.43870312 27.3697701,3.69235293 28.0443516,4.19966016 C28.7189331,4.70696738 29.0562187,5.41033144 29.0562187,6.30977344 L29.0562187,9.78960937 C29.0562187,11.2100696 28.3816474,12.0985295 27.0324844,12.4550156 C26.5279194,12.5866413 25.9246441,12.6524531 25.2226406,12.6524531 Z M25.2226406,11.0976328 C26.2866147,11.0976328 26.8185937,10.6945353 26.8185937,9.88832812 L26.8185937,6.21105469 C26.8185937,5.7777869 26.6842279,5.46792281 26.4154922,5.28145312 C26.1467565,5.09498344 25.7491433,5.00175 25.2226406,5.00175 C24.1586666,5.00175 23.6266875,5.40484753 23.6266875,6.21105469 L23.6266875,9.88832812 C23.6266875,10.3215959 23.7596823,10.63146 24.0256758,10.8179297 C24.2916693,11.0043994 24.6906536,11.0976328 25.2226406,11.0976328 Z M36.8796797,11.4925078 C36.7041788,11.8544784 36.364151,12.1382919 35.8595859,12.343957 C35.3550209,12.5496221 34.7956203,12.6524531 34.1813672,12.6524531 C33.2983784,12.6524531 32.6018697,12.4084009 32.0918203,11.9202891 C31.5817709,11.4321772 31.32675,10.8151912 31.32675,10.0693125 L31.32675,3.62791406 L33.564375,3.62791406 L33.564375,9.70734375 C33.564375,10.1296427 33.7138227,10.4449911 34.0127227,10.6533984 C34.3116226,10.8618057 34.677701,10.9660078 35.1109687,10.9660078 C35.5442365,10.9660078 35.9363654,10.849466 36.2873672,10.6163789 C36.6383689,10.3832918 36.8138672,10.0391507 36.8138672,9.58394531 L36.8138672,3.62791406 L39.0514922,3.62791406 L39.0514922,12.4632422 L36.9454922,12.4632422 L36.8796797,11.4925078 Z M45.1720547,10.7109844 C45.9014802,10.7109844 46.4471701,10.5793607 46.8091406,10.3161094 L46.8091406,5.61874219 C46.8091406,5.48711653 46.6528375,5.35000853 46.3402266,5.20741406 C46.0221312,5.070304 45.6162915,5.00175 45.1226953,5.00175 C44.1025965,5.00175 43.5925547,5.41307401 43.5925547,6.23573437 L43.5925547,9.53458594 C43.5925547,10.3188555 44.1190494,10.7109844 45.1720547,10.7109844 Z M45.0568828,16.0911562 C43.7570794,16.0911562 42.7836126,15.9375953 42.1364531,15.6304687 L42.5971406,14.1085547 C43.4252854,14.3388996 44.188977,14.4540703 44.8882383,14.4540703 C45.5874996,14.4540703 46.0824595,14.3155912 46.3731328,14.0386289 C46.6638061,13.7616666 46.8091406,13.3188077 46.8091406,12.7100391 L46.8091406,11.7393047 C46.2936068,12.0464312 45.5628211,12.1999922 44.6167617,12.1999922 C43.6707023,12.1999922 42.8905578,11.957311 42.2763047,11.4719414 C41.6620516,10.9865718 41.3549297,10.3133715 41.3549297,9.45232031 L41.3549297,6.28509375 C41.3549297,5.4898554 41.6140638,4.8166551 42.1323398,4.26547266 C42.6506159,3.71429021 43.5130252,3.43870312 44.7195937,3.43870312 C45.185768,3.43870312 45.6423376,3.51685469 46.0893164,3.67316016 C46.5362952,3.82946563 46.9051157,4.02553007 47.1957891,4.26135937 L47.385,3.6196875 L49.0467656,3.6196875 L49.0467656,12.5619609 C49.0467656,14.9147696 47.716818,16.0911562 45.0568828,16.0911562 Z M51.6299062,12.4632422 L51.6299062,-1.59872116e-14 L53.8675312,-1.59872116e-14 L53.8675312,4.48347656 C54.0540009,4.17635003 54.4077396,3.92544238 54.9287578,3.73074609 C55.449776,3.53604981 56.0736175,3.43870312 56.8003008,3.43870312 C57.5269841,3.43870312 58.1357436,3.66493133 58.6265977,4.11739453 C59.1174517,4.56985773 59.362875,5.17176187 59.362875,5.923125 L59.362875,12.4632422 L57.12525,12.4632422 L57.12525,6.24396094 C57.12525,5.4871134 56.6234347,5.10869531 55.6197891,5.10869531 C55.1700681,5.10869531 54.7655995,5.22249496 54.4063711,5.45009766 C54.0471427,5.67770036 53.8675312,5.99167769 53.8675312,6.39203906 L53.8675312,12.4632422 L51.6299062,12.4632422 Z M62.1763594,12.4632422 L62.1763594,0.320835937 L64.6196484,0.320835937 L64.6196484,10.5546797 L69.6954375,10.5546797 L69.6954375,12.4632422 L62.1763594,12.4632422 Z M73.4056172,10.0446328 C73.4056172,10.7521207 73.7895196,11.1058594 74.5573359,11.1058594 C74.8589781,11.1058594 75.1770686,11.0263367 75.5116172,10.8672891 C75.8461657,10.7082414 76.1094131,10.4833843 76.3013672,10.1927109 L76.3013672,7.98799219 C76.0381159,8.20188388 75.5746908,8.43085425 74.9110781,8.67491016 C74.2474654,8.91896606 73.8306571,9.14382319 73.6606406,9.34948828 C73.4906241,9.55515337 73.4056172,9.7868659 73.4056172,10.0446328 Z M76.4823516,11.4842812 C76.2245846,11.8188298 75.8557641,12.097159 75.3758789,12.3192773 C74.8959937,12.5413956 74.3132847,12.6524531 73.6277344,12.6524531 C72.9421841,12.6524531 72.3622172,12.4303382 71.8878164,11.9861016 C71.4134156,11.541865 71.1762187,10.9742378 71.1762187,10.2832031 C71.1762187,9.59216842 71.3914783,9.03825208 71.8220039,8.6214375 C72.2525295,8.20462292 73.0765486,7.80426754 74.2940859,7.42035937 C75.0344803,7.18453007 75.5541196,6.97338374 75.8530195,6.78691406 C76.1519195,6.60044438 76.3013672,6.34268133 76.3013672,6.01361719 C76.3013672,5.33355129 75.8379421,4.9962656 74.9110781,5.00175 C74.3900599,5.00175 74.0308369,5.10183884 73.8333984,5.30201953 C73.63596,5.50220022 73.5372422,5.79149811 73.5372422,6.16992187 L73.5372422,6.5154375 L71.4394687,6.5154375 L71.4394687,6.2521875 C71.4394687,5.36919871 71.7328799,4.67954545 72.3197109,4.18320703 C72.906542,3.68686861 73.8087127,3.43870312 75.02625,3.43870312 C76.2437873,3.43870312 77.128134,3.69646617 77.6793164,4.212 C78.2304988,4.72753383 78.5060859,5.46791705 78.5060859,6.43317187 L78.5060859,9.92946094 C78.5060859,10.3243379 78.5554448,10.5848431 78.6541641,10.7109844 C78.7528833,10.8371256 78.9420924,10.9001953 79.2217969,10.9001953 L79.1313047,12.5290547 L78.6623906,12.5290547 C78.053622,12.5290547 77.5792283,12.4454188 77.2391953,12.2781445 C76.8991624,12.1108703 76.6468836,11.8462518 76.4823516,11.4842812 Z M86.740875,6.2521875 C86.740875,5.48985556 86.2226067,5.10869531 85.1860547,5.10869531 C84.7418181,5.10869531 84.3442049,5.22523712 83.9932031,5.45832422 C83.6422014,5.69141132 83.4667031,6.01087297 83.4667031,6.41671875 L83.4667031,12.4632422 L81.2290781,12.4632422 L81.2290781,3.62791406 L83.4667031,3.62791406 L83.4667031,4.4094375 C84.2180663,3.75130921 85.0955575,3.42225 86.0992031,3.42225 C87.1028488,3.42225 87.8336344,3.68001305 88.291582,4.19554687 C88.7495296,4.7110807 88.9785,5.35548832 88.9785,6.12878906 L88.9785,12.4632422 L86.740875,12.4632422 L86.740875,6.2521875 Z M93.4866562,7.10775 L96.6621094,7.10775 L96.6621094,6.07120312 C96.6621094,5.53921609 96.4482209,5.21289904 96.0204375,5.09224219 C95.795577,5.02642936 95.4541781,4.99489452 94.9962305,4.99763672 C94.5382829,5.00037892 94.1722045,5.07853048 93.8979844,5.23209375 C93.6237643,5.38565702 93.4866562,5.67906815 93.4866562,6.11233594 L93.4866562,7.10775 Z M93.5360156,12.504375 C93.0972634,12.4111402 92.7023924,12.254837 92.3513906,12.0354609 C91.6164807,11.5857399 91.2490312,10.8069665 91.2490312,9.69911719 L91.2490312,6.2521875 C91.2490312,5.36371431 91.5863169,4.67268997 92.2608984,4.17909375 C92.9354799,3.68549753 93.8541036,3.43870312 95.0167969,3.43870312 C97.5231688,3.43870312 98.7763359,4.40394347 98.7763359,6.33445312 L98.7763359,8.47335937 L93.4866562,8.47335937 L93.4866562,9.91300781 C93.4866562,10.4011196 93.6073113,10.7205813 93.848625,10.8714023 C94.0899387,11.0222234 94.4985206,11.0976328 95.0743828,11.0976328 C95.6502451,11.0976328 95.9902729,11.0702112 96.0944766,11.0153672 C96.3412747,10.8782571 96.50032,10.7123564 96.5716172,10.5176602 C96.6429144,10.3229639 96.6840468,10.0665719 96.6950156,9.74847656 L98.7681094,9.74847656 C98.735203,11.1086084 98.2553249,11.9696466 97.3284609,12.3316172 C96.7855051,12.5400245 96.1273867,12.6455976 95.3540859,12.6483398 C94.5807852,12.651082 93.9747678,12.6030942 93.5360156,12.504375 Z" id="PloughLane" fill="#FFFFFF"></path>
                </g>
            </g>
        </g>
    </g>
</svg>